<svg id="Layer_1" data-name="Layer 1" xmlns="http://www.w3.org/2000/svg" xmlns:xlink="http://www.w3.org/1999/xlink" viewBox="0 0 145 49"><defs><style>.cls-1{fill:#fff;}.cls-2{font-size:8px;font-family:OpenSans, Open Sans;}.cls-2,.cls-3{fill:#595959;}.cls-3{font-size:14px;font-family:OpenSans-Bold, Open Sans;font-weight:700;}.cls-4{fill:url(#linear-gradient);}</style><linearGradient id="linear-gradient" x1="-115.91" y1="-760.05" x2="-115.91" y2="-786.39" gradientTransform="matrix(1, 0, 0, -1, 144, -747.99)" gradientUnits="userSpaceOnUse"><stop offset="0" stop-color="#00bffc"/><stop offset="1" stop-color="#0073f6"/></linearGradient></defs><rect class="cls-1" x="48.01" y="-48" width="49" height="145" rx="6.13" transform="translate(97 -48.01) rotate(90)"/><text class="cls-2" transform="translate(49.05 17.45)">Download on the</text><text class="cls-3" transform="translate(49.05 34.29)">App Store</text><path class="cls-4" d="M35.93,12.07H20.24a5.32,5.32,0,0,0-5.32,5.32v15.7a5.32,5.32,0,0,0,5.32,5.31H35.93a5.32,5.32,0,0,0,5.32-5.32V17.39A5.32,5.32,0,0,0,35.93,12.07Z" transform="translate(-0.01 0)"/><path class="cls-1" d="M28,18.12l.54-.92a1.19,1.19,0,0,1,1.63-.45,1.21,1.21,0,0,1,.45,1.64l-5.14,8.9h3.71a1.64,1.64,0,0,1,1.36,2.39H19.62a1.2,1.2,0,0,1,0-2.39h3.06l3.91-6.78-1.22-2.12a1.2,1.2,0,0,1,2.08-1.2Z" transform="translate(-0.01 0)"/><path class="cls-1" d="M23.35,30.92l-1.15,2a1.2,1.2,0,1,1-2.08-1.2L21,30.24A2.05,2.05,0,0,1,23.35,30.92Z" transform="translate(-0.01 0)"/><path class="cls-1" d="M33.27,27.29h3.12a1.2,1.2,0,1,1,0,2.4H34.66l1.17,2a1.2,1.2,0,0,1-2.08,1.2l-4.43-7.67a3.31,3.31,0,0,1,.42-4.06c.79,1.35,2,3.39,3.53,6.1Z" transform="translate(-0.01 0)"/></svg>