<svg id="Layer_1" data-name="Layer 1" xmlns="http://www.w3.org/2000/svg" xmlns:xlink="http://www.w3.org/1999/xlink" viewBox="0 0 145 49"><defs><style>.cls-1{fill:#fff;}.cls-2{fill:url(#linear-gradient);}.cls-3{fill:url(#linear-gradient-2);}.cls-4{fill:url(#linear-gradient-3);}.cls-5{fill:url(#linear-gradient-4);}.cls-6{font-size:8px;font-family:OpenSans, Open Sans;}.cls-6,.cls-7{fill:#595959;}.cls-7{font-size:14px;font-family:OpenSans-Bold, Open Sans;font-weight:700;}</style><linearGradient id="linear-gradient" x1="-115.62" y1="-7974.33" x2="-132.81" y2="-7957.14" gradientTransform="translate(144 7988)" gradientUnits="userSpaceOnUse"><stop offset="0" stop-color="#00a0ff"/><stop offset="0.01" stop-color="#00a2ff"/><stop offset="0.26" stop-color="#00beff"/><stop offset="0.51" stop-color="#00d2ff"/><stop offset="0.76" stop-color="#00dfff"/><stop offset="1" stop-color="#00e3ff"/></linearGradient><linearGradient id="linear-gradient-2" x1="-103.3" y1="-7962.76" x2="-128.07" y2="-7962.76" gradientTransform="translate(144 7988)" gradientUnits="userSpaceOnUse"><stop offset="0" stop-color="#ffe000"/><stop offset="0.41" stop-color="#ffbd00"/><stop offset="0.78" stop-color="#ffa600"/><stop offset="1" stop-color="#ff9c00"/></linearGradient><linearGradient id="linear-gradient-3" x1="-112.52" y1="-7960.41" x2="-135.83" y2="-7937.11" gradientTransform="translate(144 7988)" gradientUnits="userSpaceOnUse"><stop offset="0" stop-color="#ff3743"/><stop offset="1" stop-color="#e30864"/></linearGradient><linearGradient id="linear-gradient-4" x1="-130.47" y1="-7983.07" x2="-120.06" y2="-7972.66" gradientTransform="translate(144 7988)" gradientUnits="userSpaceOnUse"><stop offset="0" stop-color="#00a06f"/><stop offset="0.07" stop-color="#00a86e"/><stop offset="0.48" stop-color="#00cf6e"/><stop offset="0.8" stop-color="#00e76d"/><stop offset="1" stop-color="#00ef6d"/></linearGradient></defs><rect class="cls-1" x="48.01" y="-48" width="49" height="145" rx="6.13" transform="translate(97 -48.01) rotate(90)"/><path class="cls-2" d="M16.74,12.47a2.06,2.06,0,0,0-.47,1.44V36.56A2.06,2.06,0,0,0,16.74,38l.08.07L29.5,25.39v-.3L16.82,12.4Z" transform="translate(-0.01 0)"/><path class="cls-3" d="M33.73,29.62,29.5,25.39v-.3l4.23-4.23.1.05,5,2.85c1.43.81,1.43,2.14,0,2.95l-5,2.85Z" transform="translate(-0.01 0)"/><path class="cls-4" d="M33.83,29.56,29.5,25.24,16.74,38a1.67,1.67,0,0,0,2.13.06l15-8.5" transform="translate(-0.01 0)"/><path class="cls-5" d="M33.83,20.91l-15-8.5a1.67,1.67,0,0,0-2.13.06L29.5,25.24Z" transform="translate(-0.01 0)"/><text class="cls-6" transform="translate(49.05 17.45)">Get it on</text><text class="cls-7" transform="translate(49.05 34.29)">Google Play</text></svg>