<svg id="Layer_1" data-name="Layer 1" xmlns="http://www.w3.org/2000/svg" viewBox="0 0 145 49"><defs><style>.cls-1{fill:#fff;}.cls-2{font-size:8px;font-family:OpenSans, Open Sans;}.cls-2,.cls-3{fill:#595959;}.cls-3{font-size:14px;font-family:OpenSans-Bold, Open Sans;font-weight:700;}.cls-4{fill:#e14459;}.cls-5{fill:#c73148;}</style></defs><rect class="cls-1" x="48.01" y="-48" width="49" height="145" rx="6.13" transform="translate(97 -48.01) rotate(90)"/><text class="cls-2" transform="translate(49.05 17.45)">Download on the</text><text class="cls-3" transform="translate(49.05 34.29)">App Gallery</text><rect class="cls-4" x="14.56" y="11.69" width="27.02" height="27.02" rx="5.82"/><path class="cls-5" d="M21.16,13.46a.78.78,0,0,0-.77.77.77.77,0,0,0,1.54,0h0a.76.76,0,0,0-.77-.77Zm13.75,0a.78.78,0,0,0-.77.77.77.77,0,0,0,1.54,0h0a.76.76,0,0,0-.77-.77Z" transform="translate(-0.01 0)"/><path class="cls-1" d="M21.13,14.12c-.27,0-.25.4-.25.4A7.64,7.64,0,0,0,28,18.69a7.69,7.69,0,0,0,7.14-4.18s.06-.53-.5-.34a7.64,7.64,0,0,1-13.29,0,.6.6,0,0,0-.23-.06ZM30.85,25,30,27.42,29.24,25h-.78l1.25,3.54h.61l.82-2.32L32,28.53h.61L33.81,25h-.75l-.8,2.43L31.44,25Zm-4.34,0-1.59,3.54h.75l.31-.69,0-.05h1.64l.33.74h.76L27.16,25v0ZM38,25v3.53h.72V25ZM17.34,25v3.54h.73V27.09h1.64v1.44h.73V25h-.73v1.43H18.07V25Zm6.48,0v2c0,.57-.29.88-.81.88s-.83-.32-.83-.91V25h-.73v2A1.42,1.42,0,0,0,23,28.58,1.43,1.43,0,0,0,24.55,27V25ZM34.4,25v3.54h2.72v-.65h-2V27h1.33v-.65H35.12v-.72h1.93V25Zm-7.58.9.52,1.18,0,.08h-1.1l0-.08Z" transform="translate(-0.01 0)"/></svg>