<?xml version="1.0" encoding="utf-8"?>
<!-- Generator: Adobe Illustrator 26.0.1, SVG Export Plug-In . SVG Version: 6.00 Build 0)  -->
<svg version="1.1" id="Layer_1" xmlns="http://www.w3.org/2000/svg" xmlns:xlink="http://www.w3.org/1999/xlink" x="0px" y="0px"
	 viewBox="0 0 929 153" style="enable-background:new 0 0 929 153;" xml:space="preserve">
<style type="text/css">
	.st0{fill:#EDEDED;}
	.st1{fill:none;stroke:url(#SVGID_1_);stroke-width:0.9445;stroke-miterlimit:10;}
	.st2{fill:url(#SVGID_00000163073672130301101030000016340570537513564317_);}
	.st3{fill:#FE9752;}
	.st4{opacity:0.5;fill:url(#SVGID_00000041297267300477446700000017031558256055798965_);enable-background:new    ;}
	.st5{fill:#FFFFFF;}
	.st6{opacity:0.5;fill:url(#SVGID_00000165193667732923367640000012600384264312882321_);enable-background:new    ;}
	.st7{opacity:0.5;fill:url(#SVGID_00000138533700956288048610000017077098861329947582_);enable-background:new    ;}
</style>
<g>
	<g>
		<path class="st0" d="M274.8,86.8c-0.5-1.7-1.9-2.5-2.3-2.8c-7.1-4-12.9-7.4-18.2-10.6c-0.6-0.4-1.6-0.9-2.8-0.9
			c-1.7,0-3,0.9-4.1,2.7c-5.6,9.9-11.4,19.9-17,29.6l-2.7,4.7c-1.1,1.9-2.5,2.8-4.8,2.8c-6.5,0-13,0-19.5,0c-6.8,0-13.5,0-20.3,0
			c-2.1,0-3.5-0.8-4.6-2.5l-9.6-15.2c-3.9-6.2-7.8-12.5-11.7-18.7l2.5-3.9c0.2-0.3,0.4-0.6,0.6-0.8l5.2-8.3
			c5.2-8.4,10.5-16.7,15.7-25.1c1.2-1.9,2.6-2.7,4.9-2.7c5,0,10,0,15,0h5.8c4.1,0,8.2,0,12.3,0h0c0.6,0,2.2,0,3.5-1.3
			c1.3-1.3,1.3-2.9,1.3-3.5c-0.1-7.8,0-15.5,0-21.4c0-0.6,0-2.2-1.2-3.5c-0.8-0.8-2-1.3-3.4-1.3c-2.6,0-5.3,0-7.9,0l-15.4,0
			c-4.7,0-10.9,0-17.2,0.1c-8.2,0.1-14.9,3.7-19.3,10.4c-4.4,6.8-8.8,13.8-13,20.5c-2.2,3.5-4.4,7-6.6,10.5
			c-0.3,0.5-0.6,1.1-0.7,1.7c-6.6-10.6-13.3-21.1-19.9-31.7c-4.6-7.4-11.7-11.3-20.3-11.3c-5.5,0-10.9,0-16.4,0H69.5
			c-3.4,0-6.8,0-10.2,0c-0.6,0-2.3,0-3.6,1.3s-1.3,3.1-1.3,3.6c0,6.9,0,14,0,21c0,0.6,0,2.3,1.3,3.6c1.3,1.3,3,1.3,3.6,1.3
			c0,0,0,0,0,0c2.7,0,5.4,0,8,0l10.6,0c4.1,0,9,0,14,0H92c2.6,0,4.1,0.9,5.5,3.2c7.9,12.6,15.8,25.2,23.7,37.8l-2.5,3.8
			c-0.2,0.3-0.4,0.7-0.6,1l-4.1,6.5c-4.7,7.5-9.4,14.9-14.1,22.4c-1.2,1.8-2.6,2.6-4.7,2.6c-6.4,0-12.8,0-19.2,0
			c-6.8,0-13.7,0-20.5,0c-2.2,0-3.5-0.8-4.6-2.7l-20-34.8c-0.9-1.6-2.1-2.4-3.7-2.4c-0.8,0-1.6,0.2-2.4,0.7
			c-6.4,3.8-13,7.6-18.8,10.9c-1.2,0.7-1.9,1.6-2.2,2.7c-0.3,1.1-0.1,2.3,0.6,3.4c2.6,4.5,5.2,9.1,7.8,13.6
			c5.3,9.2,10.8,18.8,16.3,28.1c4.2,7.1,11.1,11.1,19.5,11.2c8.6,0.1,17.4,0.1,26.8,0.1c8.8,0,18,0,28.1-0.1
			c7.8-0.1,14.4-3.6,18.7-9.9c4.1-6.1,8-12.4,11.8-18.6c1.8-2.8,3.5-5.7,5.3-8.5c0.3-0.5,0.5-1,0.6-1.5c5.6,8.8,11.1,17.7,16.6,26.5
			c5,7.9,12.2,12,21.5,12h0.2c3.4,0,6.7,0,10.1,0c2.6,0,13.1,0,15.7,0c2.7,0,5.3,0,8,0c2.7,0,5.3,0,8,0c3.5,0,6.9,0,10.4,0
			c9.3-0.1,16.7-4.3,21.3-12.3c3.1-5.4,6.2-10.9,9.4-16.3c4.6-8,9.2-16.1,13.9-24.1C274.5,89.9,275.3,88.5,274.8,86.8z"/>
		
			<linearGradient id="SVGID_1_" gradientUnits="userSpaceOnUse" x1="139.2234" y1="10.3077" x2="139.2234" y2="150.1322" gradientTransform="matrix(1 0 0 -1 0 154)">
			<stop  offset="0" style="stop-color:#FFFFFF"/>
			<stop  offset="5.320000e-02" style="stop-color:#FBFBFB"/>
			<stop  offset="0.1014" style="stop-color:#F0F0F0"/>
			<stop  offset="0.1475" style="stop-color:#DEDEDE"/>
			<stop  offset="0.1556" style="stop-color:#DADADA"/>
			<stop  offset="0.1565" style="stop-color:#DADADA"/>
			<stop  offset="0.2067" style="stop-color:#DADADA"/>
			<stop  offset="0.4903" style="stop-color:#EDEDED"/>
			<stop  offset="0.6129" style="stop-color:#E9E9E9"/>
			<stop  offset="0.7241" style="stop-color:#DEDEDE"/>
			<stop  offset="0.8305" style="stop-color:#CCCCCC"/>
			<stop  offset="0.8579" style="stop-color:#C6C6C6"/>
			<stop  offset="1" style="stop-color:#FFFFFF"/>
		</linearGradient>
		<path class="st1" d="M274.8,86.8c-0.5-1.7-1.9-2.5-2.3-2.8c-7.1-4-12.9-7.4-18.2-10.6c-0.6-0.4-1.6-0.9-2.8-0.9
			c-1.7,0-3,0.9-4.1,2.7c-5.6,9.9-11.4,19.9-17,29.6l-2.7,4.7c-1.1,1.9-2.5,2.8-4.8,2.8c-6.5,0-13,0-19.5,0c-6.8,0-13.5,0-20.3,0
			c-2.1,0-3.5-0.8-4.6-2.5l-9.6-15.2c-3.9-6.2-7.8-12.5-11.7-18.7l2.5-3.9c0.2-0.3,0.4-0.6,0.6-0.8l5.2-8.3
			c5.2-8.4,10.5-16.7,15.7-25.1c1.2-1.9,2.6-2.7,4.9-2.7c5,0,10,0,15,0h5.8c4.1,0,8.2,0,12.3,0h0c0.6,0,2.2,0,3.5-1.3
			c1.3-1.3,1.3-2.9,1.3-3.5c-0.1-7.8,0-15.5,0-21.4c0-0.6,0-2.2-1.2-3.5c-0.8-0.8-2-1.3-3.4-1.3c-2.6,0-5.3,0-7.9,0l-15.4,0
			c-4.7,0-10.9,0-17.2,0.1c-8.2,0.1-14.9,3.7-19.3,10.4c-4.4,6.8-8.8,13.8-13,20.5c-2.2,3.5-4.4,7-6.6,10.5
			c-0.3,0.5-0.6,1.1-0.7,1.7c-6.6-10.6-13.3-21.1-19.9-31.7c-4.6-7.4-11.7-11.3-20.3-11.3c-5.5,0-10.9,0-16.4,0H69.5
			c-3.4,0-6.8,0-10.2,0c-0.6,0-2.3,0-3.6,1.3s-1.3,3.1-1.3,3.6c0,6.9,0,14,0,21c0,0.6,0,2.3,1.3,3.6c1.3,1.3,3,1.3,3.6,1.3
			c0,0,0,0,0,0c2.7,0,5.4,0,8,0l10.6,0c4.1,0,9,0,14,0H92c2.6,0,4.1,0.9,5.5,3.2c7.9,12.6,15.8,25.2,23.7,37.8l-2.5,3.8
			c-0.2,0.3-0.4,0.7-0.6,1l-4.1,6.5c-4.7,7.5-9.4,14.9-14.1,22.4c-1.2,1.8-2.6,2.6-4.7,2.6c-6.4,0-12.8,0-19.2,0
			c-6.8,0-13.7,0-20.5,0c-2.2,0-3.5-0.8-4.6-2.7l-20-34.8c-0.9-1.6-2.1-2.4-3.7-2.4c-0.8,0-1.6,0.2-2.4,0.7
			c-6.4,3.8-13,7.6-18.8,10.9c-1.2,0.7-1.9,1.6-2.2,2.7c-0.3,1.1-0.1,2.3,0.6,3.4c2.6,4.5,5.2,9.1,7.8,13.6
			c5.3,9.2,10.8,18.8,16.3,28.1c4.2,7.1,11.1,11.1,19.5,11.2c8.6,0.1,17.4,0.1,26.8,0.1c8.8,0,18,0,28.1-0.1
			c7.8-0.1,14.4-3.6,18.7-9.9c4.1-6.1,8-12.4,11.8-18.6c1.8-2.8,3.5-5.7,5.3-8.5c0.3-0.5,0.5-1,0.6-1.5c5.6,8.8,11.1,17.7,16.6,26.5
			c5,7.9,12.2,12,21.5,12h0.2c3.4,0,6.7,0,10.1,0c2.6,0,13.1,0,15.7,0c2.7,0,5.3,0,8,0c2.7,0,5.3,0,8,0c3.5,0,6.9,0,10.4,0
			c9.3-0.1,16.7-4.3,21.3-12.3c3.1-5.4,6.2-10.9,9.4-16.3c4.6-8,9.2-16.1,13.9-24.1C274.5,89.9,275.3,88.5,274.8,86.8z"/>
		<g>
			
				<linearGradient id="SVGID_00000062181015669105030380000009261409385511108787_" gradientUnits="userSpaceOnUse" x1="85.4669" y1="80.235" x2="198.2235" y2="80.235" gradientTransform="matrix(1 0 0 -1 0 154)">
				<stop  offset="0.1621" style="stop-color:#FFFFFF;stop-opacity:0"/>
				<stop  offset="0.4885" style="stop-color:#DADADA"/>
				<stop  offset="0.7904" style="stop-color:#FFFFFF;stop-opacity:0"/>
			</linearGradient>
			<path style="fill:url(#SVGID_00000062181015669105030380000009261409385511108787_);" d="M74.6,147.2c-9.5,0-18.3,0-26.8-0.1
				c-9.8-0.1-18-4.8-22.9-13.1c-5.5-9.4-11-18.9-16.2-28.1c-2.7-4.6-5.3-9.2-7.9-13.7c-1.2-2.1-1.5-4.3-0.9-6.4
				c0.6-2.1,2-3.9,4.1-5.1L4,80.6c5.8-3.3,12.4-7.1,18.6-10.8c1.4-0.8,2.9-1.3,4.5-1.3c3.1,0,5.6,1.6,7.2,4.5l19.9,34.7
				c0.4,0.7,0.5,0.7,1.2,0.7c13.3,0,26.5,0,39.8,0c0.8,0,0.9-0.1,1.3-0.8c4.7-7.5,9.4-14.9,14.1-22.4l4.1-6.5
				c0.2-0.3,0.4-0.7,0.7-1.1l1.1-1.7c-7.5-11.9-14.9-23.8-22.3-35.6c-0.8-1.2-1.1-1.3-2.2-1.3c-5.1,0-9.9,0-14.1,0l-10.6,0
				c-2.7,0-5.3,0-8,0c-2.7,0-4.8-0.8-6.5-2.5s-2.5-3.8-2.4-6.5c0-6.9,0-14,0-20.9c0-2.6,0.8-4.8,2.4-6.4s3.8-2.5,6.4-2.5
				c3.5,0,6.8,0,10.2,0l13.3,0c5.5,0,11,0,16.4,0c10.1,0.1,18.2,4.6,23.6,13.2c4.2,6.7,14.1,22.4,16.4,26.1c1.6-2.5,4.2-6.7,4.2-6.7
				c4.2-6.7,8.5-13.5,12.9-20.3c5.1-7.9,12.9-12.1,22.6-12.2c6.3-0.1,12.6-0.1,17.3-0.1l15.4,0c2.6,0,5.3,0,7.9,0
				c3.1,0,5.1,1.3,6.2,2.4c1.6,1.6,2.4,3.7,2.4,6.3c0,5.8-0.1,13.4,0,21.3c0,2.5-0.8,4.6-2.4,6.3c-1.6,1.6-3.7,2.5-6.3,2.5
				c-4.1,0-8.2,0-12.3,0h-5.8c-5,0-10,0-15.1,0c-0.9,0-1.1,0.1-1.5,0.8c-4.8,7.7-9.6,15.3-14.4,22.9l-6.6,10.4
				c-0.1,0.2-1.2,1.9-1.7,2.7l19.9,31.8c0.4,0.6,0.4,0.7,1.2,0.7c13.3,0,26.5,0,39.8,0c0.7,0,0.9,0,1.3-0.8l2.9-5
				c5.5-9.6,11.2-19.5,16.8-29.3c1.7-3,4.4-4.7,7.5-4.7c2.4,0,4.2,1.1,4.8,1.4c5.4,3.2,11.2,6.6,18.2,10.5c2.2,1.2,3.6,3,4.2,5.2
				c0.6,2.2,0.2,4.4-1,6.7c-4.6,8-9.3,16.1-13.9,24.1l-9.4,16.3c-5.3,9.3-13.9,14.2-24.7,14.3c-3.5,0-7,0-10.4,0
				c-2.7,0-31.7,0-31.7,0c-3.3,0-6.7,0-10,0h-0.2c-10.6,0-19.2-4.8-24.9-13.8c-4.1-6.5-8.1-13-12.2-19.5l-0.9-1.4
				c-1.1,1.8-2.8,4.5-2.8,4.5c-3.8,6.1-7.7,12.4-11.8,18.5c-4.9,7.5-12.7,11.6-21.9,11.7C92.8,147.1,83.6,147.2,74.6,147.2z
				 M27.1,69.6c-1.3,0-2.6,0.4-3.9,1.1c-6.3,3.7-12.9,7.5-18.7,10.8l-0.2,0.1c-1.8,1-3,2.6-3.5,4.4c-0.5,1.8-0.2,3.8,0.8,5.6
				c2.6,4.5,5.2,9.1,7.9,13.7c5.3,9.2,10.7,18.7,16.2,28c4.7,8,12.5,12.5,22,12.6c8.5,0.1,17.3,0.1,26.8,0.1c9,0,18.2,0,28.1-0.1
				c8.8-0.1,16.3-4,21-11.2c4.1-6.1,8-12.4,11.8-18.5c0,0,2.2-3.6,3.3-5.3c0.2-0.3,0.8-0.3,1,0l1.4,2.2c4.1,6.5,8.1,13,12.2,19.5
				c5.4,8.7,13.7,13.3,23.9,13.3h0.2c3.3,0,6.7,0,10,0c0,0,29.1,0,31.7,0c3.5,0,6.9,0,10.4,0c10.4-0.1,18.6-4.8,23.7-13.7l9.4-16.3
				c4.6-8,9.2-16.1,13.9-24.1c1.1-1.9,1.4-3.9,0.9-5.8c-0.5-1.9-1.8-3.4-3.7-4.5c-7-4-12.8-7.3-18.2-10.5c-0.5-0.3-2.1-1.2-4.2-1.2
				c-2.7,0-5,1.5-6.5,4.1c-5.6,9.8-11.3,19.7-16.8,29.3l-2.9,5c-0.6,1.1-1.1,1.4-2.3,1.4c-13.3,0-26.5,0-39.8,0
				c-1.1,0-1.6-0.2-2.2-1.2l-20.1-32.1c-0.1-0.2-0.1-0.4,0-0.6c0,0,1.7-2.7,1.9-2.9l6.6-10.5c4.8-7.6,9.6-15.3,14.4-22.9
				c0.7-1.1,1.2-1.4,2.5-1.4c5,0,10,0,15.1,0h5.8c4.1,0,8.2,0,12.3,0c2.3,0,4.1-0.7,5.5-2.1c1.4-1.4,2.1-3.2,2.1-5.5
				c-0.1-7.9,0-15.6,0-21.3c0-2.2-0.7-4.1-2.1-5.5c-0.9-1-2.7-2.1-5.4-2.1c-2.6,0-5.3,0-7.9,0l-15.4,0c-4.7,0-11,0-17.3,0.1
				c-9.2,0.1-16.7,4.1-21.6,11.7c-4.4,6.8-8.7,13.6-12.9,20.3c0,0-3.3,5.3-4.7,7.5c-0.1,0.2-0.3,0.3-0.5,0.3l0,0
				c-0.2,0-0.4-0.1-0.5-0.3c0,0-12.1-19.3-16.9-26.9c-5.2-8.2-13-12.6-22.7-12.6c-5.5,0-11,0-16.4,0l-13.3,0c-3.4,0-6.8,0-10.2,0
				c-2.3,0-4.2,0.7-5.6,2.2c-1.4,1.4-2.1,3.3-2.1,5.6c0,6.9,0,14,0,20.9c0,2.3,0.7,4.2,2.1,5.6c1.4,1.4,3.3,2.2,5.7,2.2
				c2.7,0,5.4,0,8,0l10.6,0c4.1,0,9,0,14.1,0c1.5,0,2.2,0.3,3.2,1.9c7.5,12,15,23.9,22.5,35.8l0.1,0.1c0.1,0.2,0.1,0.4,0,0.6l-1.3,2
				c-0.2,0.4-0.5,0.7-0.7,1l-4.1,6.5c-4.7,7.5-9.4,14.9-14.1,22.4c-0.6,1-1.1,1.3-2.3,1.3c-13.3,0-26.5,0-39.8,0
				c-1.2,0-1.6-0.3-2.2-1.3l-20-34.7C32,71,29.8,69.6,27.1,69.6z"/>
		</g>
		<path class="st3" d="M203.2,139.7c-8.6,0-17.2,0-25.8,0c-8.2,0-14.4-3.4-18.8-10.4c-19.4-31-38.8-61.9-58.2-92.9
			c-2-3.2-4.7-4.9-8.6-4.8c-10.9,0.1-21.7,0-32.6,0.1c-1.2,0-1.5-0.3-1.5-1.5c0-7,0.1-14,0-21c0-1.2,0.3-1.5,1.5-1.5
			c13.3,0,26.6,0,39.9,0.1c7.5,0.1,13.4,3.3,17.4,9.7c19.7,31.4,39.4,62.8,59.1,94.2c1.7,2.8,4.2,4.1,7.5,4.1c13.3,0,26.5,0,39.8,0
			c3.5,0,6-1.5,7.7-4.5c6.6-11.4,13.2-22.9,19.7-34.3c0.6-1.1,1-1.2,2.1-0.6c6.1,3.6,12.2,7.1,18.3,10.6c0.9,0.5,0.9,0.9,0.4,1.7
			c-7.8,13.5-15.5,26.9-23.3,40.4c-4.1,7.1-10.2,10.5-18.3,10.6C220.8,139.8,212,139.7,203.2,139.7z"/>
		
			<linearGradient id="SVGID_00000024706885147314472730000009563380690319717761_" gradientUnits="userSpaceOnUse" x1="105.885" y1="49.6254" x2="105.885" y2="149.9588" gradientTransform="matrix(1 0 0 -1 0 154)">
			<stop  offset="0" style="stop-color:#FFFFFF"/>
			<stop  offset="1" style="stop-color:#FFFFFF;stop-opacity:0"/>
		</linearGradient>
		<path style="opacity:0.5;fill:url(#SVGID_00000024706885147314472730000009563380690319717761_);enable-background:new    ;" d="
			M150.5,78c-12.3-19.6-24.6-39.1-36.8-58.7c-3.4-5.4-8.2-8.1-14.5-8.1c-5.5,0-10.9,0-16.4,0l-13.3,0c-2.8,0-5.5,0-8.3,0
			c0,5.7,0,11.4,0,17.1c2,0,4.1,0,6.1,0l10.6,0c4.1,0,8.9,0,13.9,0H92c4.9,0,8.7,2.1,11.4,6.4c9.2,14.7,18.4,29.4,27.6,44
			c3.3,5.2,6.6,10.4,9.8,15.7C143,88.3,146.2,82.9,150.5,78z"/>
		<path class="st5" d="M121.9,81.3c-0.4,0.6-0.7,1-0.9,1.4c-6,9.6-12.1,19.2-18.1,28.9c-1.8,2.8-4.2,4.2-7.6,4.2
			c-13.2,0-26.5,0-39.8,0c-3.4,0-5.9-1.5-7.6-4.4c-1.5-2.5-2.9-5-4.3-7.6c-5.2-9-10.4-18.1-15.6-27.1c-0.4-0.6-0.5-1.2-1.5-0.6
			c-6.3,3.7-12.6,7.3-18.9,10.9c-0.7,0.4-0.8,0.7-0.4,1.4c8,13.9,15.9,27.9,24.1,41.7c3.7,6.2,9.5,9.4,16.6,9.5
			c18.3,0.1,36.6,0.1,54.8,0c6.6,0,12.2-2.8,15.8-8.4c5.9-8.9,11.4-18,17.1-27c0.3-0.5,0.3-0.8,0-1.3
			C131.1,95.9,126.6,88.7,121.9,81.3z M220.8,9.1c0-0.9-0.2-1.3-1.2-1.3c-13.5,0-27.1-0.1-40.6,0.1c-6.9,0.1-12.6,3-16.4,8.8
			c-6.6,10.2-13,20.6-19.5,30.9c-0.4,0.6-0.4,1,0,1.5c0.9,1.3,1.7,2.7,2.6,4c3.6,5.8,7.3,11.6,11.1,17.6c0.4-0.6,0.6-0.9,0.9-1.3
			c7-11.1,14-22.2,20.9-33.4c1.8-2.9,4.4-4.3,7.8-4.3c11,0,22.1,0,33.1,0c1,0,1.4-0.1,1.4-1.3C220.7,23.4,220.7,16.2,220.8,9.1z"/>
		
			<linearGradient id="SVGID_00000009577709196625050590000017698318580312752028_" gradientUnits="userSpaceOnUse" x1="28.5757" y1="6.642" x2="61.4157" y2="42.4675" gradientTransform="matrix(1 0 0 -1 0 154)">
			<stop  offset="0" style="stop-color:#FFFFFF"/>
			<stop  offset="1" style="stop-color:#FFFFFF;stop-opacity:0"/>
		</linearGradient>
		<path style="opacity:0.5;fill:url(#SVGID_00000009577709196625050590000017698318580312752028_);enable-background:new    ;" d="
			M74.6,136.4c-9.4,0-18.1,0-26.7-0.1c-6.1-0.1-10.7-2.7-13.7-7.8c-5.5-9.3-11-18.8-16.2-28c-2.2-3.8-4.4-7.7-6.6-11.5
			C16,86.2,21,83.3,26,80.3l18.8,32.8c2.3,4,6,6.1,10.6,6.1c6.9,0,13.7,0,20.5,0c6.4,0,12.8,0,19.2,0c4.5,0,8.1-2,10.5-5.8
			c4.7-7.5,9.4-14.9,14-22.4l2.1-3.3c3.4,5.4,6.7,10.7,10,16c-1.5,2.4-3.1,4.9-4.6,7.3c-3.8,6.1-7.7,12.3-11.7,18.4
			c-2.9,4.4-7.4,6.8-13,6.8C92.6,136.3,83.4,136.4,74.6,136.4z"/>
		
			<linearGradient id="SVGID_00000013169419507107038360000016188358653861173419_" gradientUnits="userSpaceOnUse" x1="215.7358" y1="169.3036" x2="185.1349" y2="120.7899" gradientTransform="matrix(1 0 0 -1 0 154)">
			<stop  offset="0" style="stop-color:#FFFFFF"/>
			<stop  offset="1" style="stop-color:#FFFFFF;stop-opacity:0"/>
		</linearGradient>
		<path style="opacity:0.5;fill:url(#SVGID_00000013169419507107038360000016188358653861173419_);enable-background:new    ;" d="
			M148.5,51.3l-0.7-1.1c-0.4-0.6-0.8-1.2-1.2-1.9c2-3.1,3.9-6.2,5.9-9.4c4.2-6.7,8.6-13.7,12.9-20.5c3.1-4.8,7.6-7.2,13.6-7.2
			c6.3-0.1,12.5-0.1,17.2-0.1l15.4,0c1.9,0,3.8,0,5.7,0c0,5,0,11,0,17.1c-3.4,0-6.8,0-10.2,0h-5.8c-5,0-10,0-15,0
			c-4.7,0-8.3,2-10.8,5.9c-5.2,8.4-10.5,16.7-15.7,25.1l-3.2,5L148.5,51.3z"/>
	</g>
	<g>
		<g>
			<path class="st5" d="M352,139.7l-11.1-14.3l-11,14.3h-13.9l17.3-22.1l-16-20.4H332l9.1,12.3l9.5-12.3h13.9l-15.8,20l17.9,22.5
				L352,139.7L352,139.7z"/>
			<path class="st5" d="M372.1,139.7V97.2h21c6.3,0,11.1,1.2,14.2,3.6c3.1,2.4,4.7,6.1,4.7,11c0,4.9-1.6,8.6-4.8,11.1
				c-3.2,2.4-8.2,3.6-14.8,3.6h-8.2v13.1L372.1,139.7L372.1,139.7z M392.2,117.2c2.7,0,4.6-0.4,5.9-1.3c1.2-0.8,1.8-2.2,1.8-4.1
				c0-1.8-0.6-3.2-1.8-4s-3.1-1.2-5.8-1.2h-8.1v10.6H392.2z"/>
			<path class="st5" d="M448.8,139.7l-8.5-14.4h-9.8v14.4h-11.8V97.2h21.7c12.6,0,19,4.7,19,14.1c0,2.8-0.6,5.2-1.8,7
				s-3.1,3.4-5.6,4.6l10.4,16.8H448.8z M439.7,116.2c2.7,0,4.7-0.4,5.9-1.2c1.2-0.8,1.8-2.1,1.8-3.9c0-1.7-0.6-3-1.8-3.8
				s-3.1-1.2-5.9-1.2h-9.3v10C430.5,116.2,439.7,116.2,439.7,116.2z"/>
			<path class="st5" d="M467.7,139.7V97.2h37v9.6H480v6.5h23.5v9.6H480v7.2h26.1l-1.2,9.6H467.7z"/>
			<path class="st5" d="M540.8,110c-0.7-1.7-1.7-2.9-3.1-3.6c-1.4-0.7-3.3-1.1-5.7-1.1c-2.7,0-4.8,0.3-6.2,0.9
				c-1.4,0.6-2.1,1.5-2.1,2.6c0,1.1,0.4,1.9,1.1,2.4s2.2,0.9,4.4,1.3l9.2,1.5c5.5,0.9,9.5,2.3,11.9,4.4s3.7,5,3.7,8.7
				c0,4.5-1.8,7.9-5.4,10.2c-3.6,2.3-8.9,3.4-16,3.4c-7,0-12.4-1.2-16.1-3.7c-3.7-2.5-5.8-6.3-6.3-11.3h12.5c0.4,2,1.4,3.5,3,4.5
				c1.6,0.9,3.9,1.4,7,1.4c2.8,0,5-0.4,6.6-1.1s2.3-1.7,2.3-3c0-1-0.4-1.8-1.3-2.3c-0.8-0.6-2.3-1-4.4-1.3l-7.5-1.1
				c-5.8-0.9-10.1-2.4-12.8-4.6c-2.7-2.2-4-5.2-4-9c0-4.1,1.9-7.3,5.6-9.6c3.7-2.3,8.9-3.4,15.5-3.4c6.1,0,10.8,1.1,14.2,3.2
				c3.3,2.1,5.4,5.3,6.2,9.5L540.8,110z"/>
			<path class="st5" d="M588.3,110c-0.7-1.7-1.7-2.9-3.1-3.6c-1.4-0.7-3.3-1.1-5.7-1.1c-2.7,0-4.8,0.3-6.2,0.9
				c-1.4,0.6-2.1,1.5-2.1,2.6c0,1.1,0.4,1.9,1.1,2.4s2.2,0.9,4.4,1.3l9.2,1.5c5.5,0.9,9.5,2.3,11.9,4.4s3.7,5,3.7,8.7
				c0,4.5-1.8,7.9-5.4,10.2c-3.6,2.3-8.9,3.4-16,3.4c-7,0-12.4-1.2-16.1-3.7c-3.7-2.5-5.8-6.3-6.3-11.3h12.5c0.4,2,1.4,3.5,3,4.5
				c1.6,0.9,3.9,1.4,7,1.4c2.8,0,5-0.4,6.6-1.1s2.3-1.7,2.3-3c0-1-0.4-1.8-1.3-2.3c-0.8-0.6-2.3-1-4.4-1.3l-7.5-1.1
				c-5.8-0.9-10.1-2.4-12.8-4.6c-2.7-2.2-4-5.2-4-9c0-4.1,1.9-7.3,5.6-9.6c3.7-2.3,8.9-3.4,15.5-3.4c6.1,0,10.8,1.1,14.2,3.2
				c3.3,2.1,5.4,5.3,6.2,9.5L588.3,110z"/>
			<path class="st5" d="M606,123.4v-10.3h24.4v10.3H606z"/>
			<path class="st5" d="M665.2,110c-0.7-1.7-1.7-2.9-3.1-3.6c-1.4-0.7-3.3-1.1-5.7-1.1c-2.7,0-4.8,0.3-6.2,0.9
				c-1.4,0.6-2.1,1.5-2.1,2.6c0,1.1,0.4,1.9,1.1,2.4s2.2,0.9,4.4,1.3l9.2,1.5c5.5,0.9,9.5,2.3,11.9,4.4s3.7,5,3.7,8.7
				c0,4.5-1.8,7.9-5.4,10.2c-3.6,2.3-8.9,3.4-16,3.4c-7,0-12.4-1.2-16.1-3.7c-3.7-2.5-5.8-6.3-6.3-11.3H647c0.4,2,1.4,3.5,3,4.5
				c1.6,0.9,3.9,1.4,7,1.4c2.8,0,5-0.4,6.6-1.1s2.3-1.7,2.3-3c0-1-0.4-1.8-1.3-2.3c-0.8-0.6-2.3-1-4.4-1.3l-7.5-1.1
				c-5.8-0.9-10.1-2.4-12.8-4.6c-2.7-2.2-4-5.2-4-9c0-4.1,1.9-7.3,5.6-9.6c3.7-2.3,8.9-3.4,15.5-3.4c6.1,0,10.8,1.1,14.2,3.2
				c3.3,2.1,5.4,5.3,6.2,9.5L665.2,110z"/>
			<path class="st5" d="M695.8,139.7v-32.2H680V97.2h44.1v10.2h-15.8v32.2L695.8,139.7L695.8,139.7z"/>
			<path class="st5" d="M776.5,118.4c0,4.5-1,8.4-3,11.8s-4.9,5.9-8.7,7.8c-3.8,1.8-8.4,2.7-13.7,2.7c-5.1,0-9.5-0.9-13.3-2.6
				s-6.7-4.3-8.7-7.6c-2.1-3.3-3.1-7.4-3.1-12c0-4.5,1-8.4,3-11.8c2-3.3,4.9-5.9,8.7-7.8c3.8-1.8,8.4-2.7,13.7-2.7
				c5.1,0,9.5,0.9,13.3,2.6c3.8,1.7,6.7,4.3,8.7,7.6C775.5,109.8,776.5,113.8,776.5,118.4z M763.6,118.4c0-3.9-1.1-6.9-3.2-9
				s-5.2-3.2-9.1-3.2c-3.9,0-7,1.1-9.1,3.2s-3.2,5.2-3.2,9s1.1,6.9,3.2,9s5.2,3.2,9.1,3.2s7-1.1,9.1-3.2
				C762.5,125.3,763.6,122.3,763.6,118.4z"/>
			<path class="st5" d="M813.8,139.7l-8.5-14.4h-9.8v14.4h-11.8V97.2h21.7c12.6,0,19,4.7,19,14.1c0,2.8-0.6,5.2-1.8,7
				c-1.2,1.9-3.1,3.4-5.7,4.6l10.4,16.8H813.8z M804.7,116.2c2.7,0,4.7-0.4,5.9-1.2c1.2-0.8,1.8-2.1,1.8-3.9c0-1.7-0.6-3-1.8-3.8
				s-3.1-1.2-5.8-1.2h-9.3v10C795.6,116.2,804.7,116.2,804.7,116.2z"/>
			<path class="st5" d="M832.8,139.7V97.2h37v9.6H845v6.5h23.5v9.6H845v7.2h26.2l-1.2,9.6H832.8z"/>
			<path class="st5" d="M905.9,110c-0.7-1.7-1.7-2.9-3.1-3.6c-1.4-0.7-3.3-1.1-5.7-1.1c-2.7,0-4.8,0.3-6.2,0.9
				c-1.4,0.6-2.1,1.5-2.1,2.6c0,1.1,0.4,1.9,1.1,2.4s2.2,0.9,4.4,1.3l9.2,1.5c5.5,0.9,9.5,2.3,11.9,4.4s3.7,5,3.7,8.7
				c0,4.5-1.8,7.9-5.4,10.2c-3.6,2.3-8.9,3.4-16,3.4c-7,0-12.4-1.2-16.1-3.7c-3.7-2.5-5.8-6.3-6.3-11.3h12.5c0.4,2,1.4,3.5,3,4.5
				c1.6,0.9,3.9,1.4,7,1.4c2.8,0,5-0.4,6.6-1.1s2.3-1.7,2.3-3c0-1-0.4-1.8-1.3-2.3c-0.8-0.6-2.3-1-4.4-1.3l-7.5-1.1
				c-5.8-0.9-10.1-2.4-12.8-4.6c-2.7-2.2-4-5.2-4-9c0-4.1,1.9-7.3,5.6-9.6c3.7-2.3,8.9-3.4,15.5-3.4c6.1,0,10.8,1.1,14.2,3.2
				c3.3,2.1,5.4,5.3,6.2,9.5L905.9,110z"/>
		</g>
		<g>
			<path class="st5" d="M319.3,77.8c-0.5,0-0.8-0.3-0.8-0.8v-8c0-0.5,0.3-0.8,0.8-0.8h1.8c2.2,0,3.7-0.6,4.6-1.7s1.4-2.8,1.4-5.1
				V28.9c0-0.5,0.3-0.8,0.8-0.8h9.7c0.5,0,0.8,0.3,0.8,0.8v33c0,5.4-1.3,9.5-3.8,12.1c-2.5,2.6-6.4,3.9-11.6,3.9
				C322.9,77.8,319.3,77.8,319.3,77.8z M327.8,20c-0.5,0-0.8-0.3-0.8-0.8v-7.8c0-0.5,0.3-0.8,0.8-0.8h9.9c0.5,0,0.8,0.3,0.8,0.8v7.8
				c0,0.5-0.3,0.8-0.8,0.8H327.8z"/>
			<path class="st5" d="M343.8,77.8c-0.5,0-0.8-0.3-0.8-0.8v-8c0-0.5,0.3-0.8,0.8-0.8h1.8c2.2,0,3.7-0.6,4.6-1.7s1.4-2.8,1.4-5.1
				V28.9c0-0.5,0.3-0.8,0.8-0.8h9.7c0.5,0,0.8,0.3,0.8,0.8v33c0,5.4-1.3,9.5-3.8,12.1c-2.5,2.6-6.4,3.9-11.6,3.9
				C347.5,77.8,343.8,77.8,343.8,77.8z"/>
			<path class="st5" d="M378.5,77.8c-0.5,0-0.8-0.3-0.8-0.8v-8c0-0.5,0.3-0.8,0.8-0.8h9.1c1.1,0,2.1-0.1,3-0.3
				c0.9-0.2,1.6-0.5,2.2-1c0.6-0.5,1-1.2,1.4-2c0.3-0.9,0.5-2,0.5-3.4h-7.6c-5.2,0-9.2-1.2-12-3.7c-2.8-2.5-4.2-6.8-4.2-12.8
				c0-3.4,0.5-6.2,1.5-8.6s2.3-4.2,3.9-5.6c1.6-1.4,3.5-2.5,5.6-3.1c2.1-0.6,4.2-1,6.5-1c2.3,0,4.5,0.3,6.7,0.9
				c2.1,0.6,4,1.5,5.6,2.9s2.9,3.2,3.8,5.5c0.9,2.3,1.4,5.2,1.4,8.5v7.4h5.4c2.1,0,3.2,1.6,3.2,4.8c0,2-0.2,3.3-0.8,3.9
				c-0.5,0.6-1.3,0.9-2.4,0.9h-5.4V63c0,5-1.3,8.7-3.8,11.1c-2.5,2.4-6.5,3.7-11.8,3.7C390.1,77.8,378.5,77.8,378.5,77.8z
				 M388.4,36.3c-2.1,0-3.8,0.7-4.9,2.2s-1.7,3.5-1.7,6c0,2.9,0.6,4.9,1.9,5.8c1.2,1,2.9,1.5,4.9,1.5h6.1v-7.7
				C394.7,39,392.6,36.3,388.4,36.3z"/>
			<path class="st5" d="M411.1,61.5c-1.1,0-1.8-0.3-2.3-0.9s-0.7-1.8-0.7-3.5c0-1.8,0.2-3.2,0.6-4c0.4-0.8,1.2-1.2,2.3-1.2h10.2
				c1.1,0,1.9,0.4,2.4,1.2s0.8,2,0.8,3.8c0,2-0.2,3.2-0.8,3.8s-1.3,0.9-2.4,0.9L411.1,61.5L411.1,61.5z"/>
			<path class="st5" d="M421.4,61.5c-1.1,0-1.8-0.3-2.3-0.9s-0.7-1.8-0.7-3.5c0-1.8,0.2-3.2,0.6-4c0.4-0.8,1.2-1.2,2.3-1.2h10.2
				c1.1,0,1.9,0.4,2.4,1.2s0.8,2,0.8,3.8c0,2-0.2,3.2-0.8,3.8s-1.3,0.9-2.4,0.9L421.4,61.5L421.4,61.5z"/>
			<path class="st5" d="M431.6,61.5c-1.1,0-1.8-0.3-2.3-0.9s-0.7-1.8-0.7-3.5c0-1.8,0.2-3.2,0.6-4c0.4-0.8,1.2-1.2,2.3-1.2h10.2
				c1.1,0,1.9,0.4,2.4,1.2s0.8,2,0.8,3.8c0,2-0.2,3.2-0.8,3.8s-1.3,0.9-2.4,0.9L431.6,61.5L431.6,61.5z"/>
			<path class="st5" d="M441.9,61.5c-1.1,0-1.8-0.3-2.3-0.9s-0.7-1.8-0.7-3.5c0-1.8,0.2-3.2,0.6-4c0.4-0.8,1.2-1.2,2.3-1.2h10.2
				c1.1,0,1.9,0.4,2.4,1.2s0.8,2,0.8,3.8c0,2-0.2,3.2-0.8,3.8s-1.3,0.9-2.4,0.9L441.9,61.5L441.9,61.5z"/>
			<path class="st5" d="M452.1,61.5c-1.1,0-1.8-0.3-2.3-0.9s-0.7-1.8-0.7-3.5c0-1.8,0.2-3.2,0.6-4c0.4-0.8,1.2-1.2,2.3-1.2h10.2
				c1.1,0,1.9,0.4,2.4,1.2s0.8,2,0.8,3.8c0,2-0.2,3.2-0.8,3.8s-1.3,0.9-2.4,0.9L452.1,61.5L452.1,61.5z"/>
			<path class="st5" d="M471.3,28.9c0-0.5,0.3-0.8,0.8-0.8h9.6c0.5,0,0.8,0.3,0.8,0.8v18.8c0.1,1.3,0.7,2.4,1.7,3.1s2.5,1.2,4.3,1.2
				h1.8c1.1,0,1.9,0.4,2.4,1.1s0.8,2,0.8,3.7c0,3.2-1.1,4.8-3.2,4.8c-2,0-3.8-0.2-5.2-0.7c-1.5-0.5-2.7-1.6-3.7-3.3
				c-0.9,1.7-2.1,2.8-3.8,3.3c-1.7,0.5-4,0.7-6.9,0.7h-8.2c-1.1,0-1.9-0.3-2.4-1s-0.8-1.9-0.8-3.7s0.2-3.1,0.8-3.8
				c0.5-0.7,1.3-1.1,2.4-1.1h4.9c1.7,0,2.8-0.5,3.2-1.5c0.4-1,0.6-2.7,0.6-5L471.3,28.9L471.3,28.9z M466.7,20
				c-0.5,0-0.8-0.3-0.8-0.8v-7.8c0-0.5,0.3-0.8,0.8-0.8h7.9c0.5,0,0.8,0.3,0.8,0.8v7.8c0,0.5-0.3,0.8-0.8,0.8H466.7z M479,20
				c-0.5,0-0.8-0.3-0.8-0.8v-7.8c0-0.5,0.3-0.8,0.8-0.8h8c0.5,0,0.8,0.3,0.8,0.8v7.8c0,0.5-0.3,0.8-0.8,0.8H479z"/>
			<path class="st5" d="M490.4,61.5c-1.1,0-1.8-0.3-2.3-0.9s-0.7-1.8-0.7-3.5c0-1.8,0.2-3.2,0.6-4c0.4-0.8,1.2-1.2,2.3-1.2h10.2
				c1.1,0,1.9,0.4,2.4,1.2s0.8,2,0.8,3.8c0,2-0.2,3.2-0.8,3.8s-1.3,0.9-2.4,0.9L490.4,61.5L490.4,61.5z"/>
			<path class="st5" d="M527.9,61.5c-2.1,0-3.8-0.4-5.1-1.2s-2.3-1.8-3-3.1c-0.7,1.7-1.8,2.8-3.3,3.4c-1.5,0.6-3.6,0.8-6.3,0.8h-9.5
				c-1.1,0-1.9-0.3-2.4-0.9s-0.8-1.8-0.8-3.5c0-1.8,0.2-3.2,0.8-4c0.5-0.8,1.3-1.2,2.4-1.2h5.3c1.5,0,2.5-0.4,2.9-1.2
				c0.4-0.8,0.6-2.2,0.6-4.2V34.6c0-0.5,0.3-0.8,0.8-0.8h9.7c0.5,0,0.8,0.3,0.8,0.8v13c0,1.7,0.5,2.8,1.6,3.4
				c1.1,0.6,2.2,0.9,3.5,0.9c1,0,1.8-0.1,2.4-0.3s1-0.5,1.3-1c0.3-0.4,0.4-1,0.5-1.7c0.1-0.7,0.1-1.6,0.1-2.7V34.6
				c0-0.5,0.3-0.8,0.8-0.8h9.7c0.5,0,0.8,0.3,0.8,0.8v13c0,1.8,0.5,3,1.6,3.5c1.1,0.6,2.3,0.8,3.7,0.8c1,0,1.8-0.1,2.3-0.3
				c0.5-0.2,0.9-0.5,1.2-1s0.4-1,0.5-1.8c0-0.7,0.1-1.6,0.1-2.7V28.9c0-0.5,0.3-0.8,0.8-0.8h9.7c0.5,0,0.8,0.3,0.8,0.8v22.6
				c0,3.4-0.7,6-2.1,7.6s-3.8,2.4-7.2,2.4h-4.4c-2.1,0-3.8-0.4-5-1.2c-1.3-0.8-2.3-1.8-3-3.1c-0.7,1.6-1.9,2.8-3.4,3.3
				c-1.5,0.6-3.6,0.9-6.2,0.9H527.9z"/>
			<path class="st5" d="M628.6,47.6c0,1.7,0.5,2.8,1.6,3.4c1.1,0.6,2.2,0.9,3.5,0.9c1,0,1.8-0.1,2.4-0.3s1-0.5,1.3-1
				c0.3-0.4,0.4-1,0.5-1.7c0.1-0.7,0.1-1.6,0.1-2.7V34.6c0-0.5,0.3-0.8,0.8-0.8h9.7c0.5,0,0.8,0.3,0.8,0.8v13c0,1.8,0.5,3,1.6,3.5
				c1.1,0.6,2.3,0.8,3.7,0.8c1,0,1.8-0.1,2.3-0.3c0.5-0.2,0.9-0.5,1.2-1s0.4-1,0.5-1.8c0-0.7,0.1-1.6,0.1-2.7V28.9
				c0-0.5,0.3-0.8,0.8-0.8h9.7c0.5,0,0.8,0.3,0.8,0.8v22.6c0,3.4-0.7,6-2.1,7.6s-3.8,2.4-7.2,2.4h-4.4c-2.1,0-3.8-0.4-5-1.2
				c-1.3-0.8-2.3-1.8-3-3.1c-0.7,1.6-1.9,2.8-3.4,3.3c-1.5,0.6-3.6,0.9-6.2,0.9h-3.1c-1.7,0-3.1-0.2-4.3-0.7
				c-1.2-0.5-2.1-1.2-2.9-2.1v1c0,3.3-0.5,6.2-1.5,8.5c-1,2.4-2.5,4.3-4.2,5.8s-3.9,2.6-6.4,3.3c-2.5,0.7-5.1,1.1-7.9,1.1
				c-2.8,0-5.4-0.4-7.8-1.1c-2.5-0.7-4.6-1.8-6.5-3.3c-1.8-1.5-3.3-3.5-4.4-5.9c-1.1-2.4-1.6-5.3-1.6-8.6c0-2.7,0.4-5.4,1.2-8.2
				c0.8-2.8,1.8-5.3,3.2-7.5c0.2-0.3,0.6-0.4,1.2-0.2l8.6,2.8c0.3,0.1,0.4,0.2,0.4,0.4s0,0.4-0.1,0.6c-0.7,1.5-1.4,3.2-2.1,5
				c-0.6,1.8-1,4-1,6.3c0,1.8,0.3,3.4,0.8,4.7c0.5,1.3,1.2,2.3,2.1,3.1c0.9,0.8,1.8,1.4,2.9,1.7c1.1,0.3,2.2,0.5,3.3,0.5
				c2.7,0,4.8-0.8,6.4-2.3s2.3-3.9,2.3-7.2V34.6c0-0.5,0.3-0.8,0.8-0.8h9.7c0.5,0,0.8,0.3,0.8,0.8L628.6,47.6L628.6,47.6z"/>
			<path class="st5" d="M683.3,28.9c0-0.5,0.3-0.8,0.8-0.8h9.7c0.5,0,0.8,0.3,0.8,0.8v18.8c0.1,1.3,0.7,2.4,1.7,3.1s2.5,1.2,4.3,1.2
				h1.8c1.1,0,1.8,0.4,2.4,1.1s0.8,2,0.8,3.7c0,3.2-1.1,4.8-3.2,4.8c-1.8,0-3.3-0.2-4.5-0.5c-1.3-0.3-2.4-1.1-3.3-2.2v1.3
				c0,6-1.2,10.5-3.5,13.4c-2.3,2.9-6.3,4.3-11.9,4.3h-3.7c-0.5,0-0.8-0.3-0.8-0.8v-8c0-0.5,0.3-0.8,0.8-0.8h1.8
				c1.4,0,2.5-0.2,3.3-0.7c0.8-0.4,1.4-1.1,1.8-2c0.4-0.9,0.7-2,0.8-3.2s0.2-2.7,0.2-4.4L683.3,28.9L683.3,28.9z"/>
			<path class="st5" d="M702.4,61.5c-1.1,0-1.8-0.3-2.3-0.9s-0.7-1.8-0.7-3.5c0-1.8,0.2-3.2,0.6-4c0.4-0.8,1.2-1.2,2.3-1.2h10.2
				c1.1,0,1.8,0.4,2.4,1.2s0.8,2,0.8,3.8c0,2-0.2,3.2-0.8,3.8s-1.3,0.9-2.4,0.9L702.4,61.5L702.4,61.5z"/>
			<path class="st5" d="M712.6,61.5c-1.1,0-1.8-0.3-2.3-0.9s-0.7-1.8-0.7-3.5c0-1.8,0.2-3.2,0.6-4c0.4-0.8,1.2-1.2,2.3-1.2h10.2
				c1.1,0,1.8,0.4,2.4,1.2s0.8,2,0.8,3.8c0,2-0.2,3.2-0.8,3.8s-1.3,0.9-2.4,0.9L712.6,61.5L712.6,61.5z"/>
			<path class="st5" d="M722.9,61.5c-1.1,0-1.8-0.3-2.3-0.9s-0.7-1.8-0.7-3.5c0-1.8,0.2-3.2,0.6-4c0.4-0.8,1.2-1.2,2.3-1.2h10.2
				c1.1,0,1.8,0.4,2.4,1.2s0.8,2,0.8,3.8c0,2-0.2,3.2-0.8,3.8s-1.3,0.9-2.4,0.9L722.9,61.5L722.9,61.5z"/>
			<path class="st5" d="M733.1,61.5c-1.1,0-1.8-0.3-2.3-0.9s-0.7-1.8-0.7-3.5c0-1.8,0.2-3.2,0.6-4c0.4-0.8,1.2-1.2,2.3-1.2h10.2
				c1.1,0,1.8,0.4,2.4,1.2s0.8,2,0.8,3.8c0,2-0.2,3.2-0.8,3.8s-1.3,0.9-2.4,0.9L733.1,61.5L733.1,61.5z"/>
			<path class="st5" d="M743.3,61.5c-1.1,0-1.8-0.3-2.3-0.9s-0.7-1.8-0.7-3.5c0-1.8,0.2-3.2,0.6-4c0.4-0.8,1.2-1.2,2.3-1.2h10.2
				c1.1,0,1.8,0.4,2.4,1.2s0.8,2,0.8,3.8c0,2-0.2,3.2-0.8,3.8s-1.3,0.9-2.4,0.9L743.3,61.5L743.3,61.5z"/>
			<path class="st5" d="M770.6,57.5c-0.9,1.6-2.1,2.7-3.7,3.2c-1.6,0.5-3.8,0.8-6.7,0.8h-6.4c-1.1,0-1.8-0.2-2.4-0.5
				c-0.5-0.3-0.8-1.1-0.8-2.3c0-0.7,0-1.4,0.2-2.2s0.3-1.5,0.6-2.2c0.3-0.7,0.6-1.3,1-1.7c0.4-0.5,1-0.7,1.6-0.7h2.6
				c1.6,0,2.7-0.5,3.1-1.4s0.7-2.6,0.7-5V28.9c0-0.4,0.4-0.7,1.2-0.7s1.4-0.1,2-0.1h7.3c0.5,0,0.8,0.3,0.8,0.8v18.8
				c0.1,1.3,0.7,2.4,1.7,3.1s2.5,1.2,4.3,1.2h1.8c1.1,0,1.8,0.4,2.4,1.1s0.8,2,0.8,3.7c0,3.2-1.1,4.8-3.2,4.8c-2,0-3.8-0.2-5.2-0.7
				C772.8,60.3,771.6,59.2,770.6,57.5z M761.1,77.7c-0.5,0-0.8-0.3-0.8-0.8v-7.8c0-0.5,0.3-0.8,0.8-0.8h9.8c0.5,0,0.8,0.3,0.8,0.8
				v7.8c0,0.5-0.3,0.8-0.8,0.8H761.1z"/>
			<path class="st5" d="M779.3,61.5c-1.1,0-1.8-0.3-2.3-0.9s-0.7-1.8-0.7-3.5c0-1.8,0.2-3.2,0.6-4c0.4-0.8,1.2-1.2,2.3-1.2h10.2
				c1.1,0,1.8,0.4,2.4,1.2s0.8,2,0.8,3.8c0,2-0.2,3.2-0.8,3.8s-1.3,0.9-2.4,0.9L779.3,61.5L779.3,61.5z"/>
			<path class="st5" d="M837.4,61.5c-2.1,0-3.8-0.4-5-1.2c-1.3-0.8-2.3-1.8-3-3.1c-0.7,1.6-1.9,2.8-3.4,3.3
				c-1.5,0.6-3.6,0.9-6.2,0.9h-3.1c-2.1,0-3.8-0.4-5.1-1.2s-2.3-1.8-3-3.1c-0.7,1.7-1.8,2.8-3.3,3.4c-1.5,0.6-3.6,0.8-6.3,0.8h-9.5
				c-1.1,0-1.8-0.3-2.4-0.9s-0.8-1.8-0.8-3.5c0-1.8,0.2-3.2,0.8-4c0.5-0.8,1.3-1.2,2.4-1.2h5.3c1.5,0,2.5-0.4,2.9-1.2
				c0.4-0.8,0.6-2.2,0.6-4.2V34.6c0-0.5,0.3-0.8,0.8-0.8h9.7c0.5,0,0.8,0.3,0.8,0.8v13c0,1.7,0.5,2.8,1.6,3.4
				c1.1,0.6,2.2,0.9,3.5,0.9c1,0,1.8-0.1,2.4-0.3s1-0.5,1.3-1c0.3-0.4,0.4-1,0.5-1.7c0.1-0.7,0.1-1.6,0.1-2.7V34.6
				c0-0.5,0.3-0.8,0.8-0.8h9.7c0.5,0,0.8,0.3,0.8,0.8v13c0,1.8,0.5,3,1.6,3.5c1.1,0.6,2.3,0.8,3.7,0.8c1,0,1.8-0.1,2.3-0.3
				c0.5-0.2,0.9-0.5,1.2-1s0.4-1,0.5-1.8c0-0.7,0.1-1.6,0.1-2.7V28.9c0-0.5,0.3-0.8,0.8-0.8h9.7c0.5,0,0.8,0.3,0.8,0.8v18.8
				c0.1,1.3,0.7,2.4,1.7,3.1s2.5,1.2,4.3,1.2h1.8c1.1,0,1.8,0.4,2.4,1.1s0.8,2,0.8,3.7c0,3.2-1.1,4.8-3.2,4.8c-2,0-3.8-0.2-5.2-0.7
				c-1.5-0.5-2.7-1.6-3.7-3.3c-0.7,1.5-1.8,2.6-3.3,3.1s-3.1,0.8-4.9,0.8C841.8,61.5,837.4,61.5,837.4,61.5z"/>
			<path class="st5" d="M877.5,27.4c2.8,0.1,5.2,0.4,7.3,0.9c2.1,0.5,3.8,1.3,5.3,2.5c1.4,1.2,2.5,2.8,3.2,4.8
				c0.7,2,1.1,4.6,1.1,7.6v4.7c0,2.6-0.2,4.8-0.8,6.5c-0.5,1.8-1.2,3.1-2.2,4.2s-2.2,1.8-3.7,2.2c-1.5,0.5-3.3,0.7-5.3,0.7h-23.4
				c-1.1,0-1.8-0.4-2.4-1.1s-0.8-2.1-0.8-4c0-1.8,0.2-3,0.8-3.6c0.5-0.6,1.3-0.9,2.4-0.9h17.8c1.3,0,2.3-0.1,3.1-0.2
				c0.8-0.2,1.4-0.4,1.8-0.8s0.7-0.9,0.8-1.6c0.1-0.7,0.2-1.6,0.2-2.6v-3.7c0-2.1-0.6-3.7-1.7-4.6c-1.1-1-3-1.4-5.4-1.4h-11.9
				c-0.5,0-0.8-0.3-0.8-0.8v-6.5c0-0.4,0.2-0.8,0.6-1.2c0.4-0.5,0.8-0.9,1.1-1.2l16.8-19.9c0.3-0.4,0.7-0.4,1-0.2l6.6,5.6
				c0.4,0.3,0.5,0.7,0.3,1.1L877.5,27.4z"/>
			<path class="st5" d="M914.2,60.7c0,0.5-0.3,0.8-0.8,0.8h-9.6c-0.5,0-0.8-0.3-0.8-0.8V8.3c0-0.5,0.3-0.8,0.8-0.8h9.6
				c0.5,0,0.8,0.3,0.8,0.8V60.7z"/>
		</g>
	</g>
</g>
</svg>
