<?xml version="1.0" encoding="utf-8"?>
<!-- Generator: Adobe Illustrator 26.0.1, SVG Export Plug-In . SVG Version: 6.00 Build 0)  -->
<svg version="1.1" id="Layer_1" xmlns="http://www.w3.org/2000/svg" xmlns:xlink="http://www.w3.org/1999/xlink" x="0px" y="0px"
	 viewBox="0 0 987.6 680.4" style="enable-background:new 0 0 987.6 680.4;" xml:space="preserve">
<style type="text/css">
	.st0{fill:#EDEDED;}
	.st1{fill:none;stroke:url(#SVGID_1_);stroke-width:2.5913;stroke-miterlimit:10;}
	.st2{fill:url(#SVGID_00000039812091369416487350000011292974535084444088_);}
	.st3{fill:#FE9752;}
	.st4{opacity:0.5;fill:url(#SVGID_00000044880719561366435560000011949320446167061402_);enable-background:new    ;}
	.st5{fill:#FFFFFF;}
	.st6{opacity:0.5;fill:url(#SVGID_00000024706933626948750440000008028177169533316270_);enable-background:new    ;}
	.st7{opacity:0.5;fill:url(#SVGID_00000061440984215552583930000012357891307552361139_);enable-background:new    ;}
</style>
<g>
	<g>
		<path class="st0" d="M865.8,254.4c-1.3-4.7-5.1-6.9-6.4-7.6c-19.4-11.1-35.3-20.3-50-29c-1.7-1-4.3-2.4-7.5-2.4
			c-4.6,0-8.3,2.5-11.1,7.4c-15.5,27.1-31.3,54.6-46.6,81.2l-7.4,12.9c-3.1,5.3-7,7.6-13,7.6c-17.8,0-35.7-0.1-53.5-0.1
			c-18.5,0-37.1,0-55.7,0c-5.8,0-9.6-2.1-12.6-6.9l-26.2-41.7c-10.7-17.1-21.5-34.2-32.2-51.3l6.8-10.6c0.6-0.9,1-1.6,1.5-2.4
			l14.3-22.8c14.4-22.9,28.8-45.9,43.2-68.8c3.3-5.3,7.2-7.4,13.5-7.4c13.8,0.1,27.5,0.1,41.2,0.1h16c11.2,0,22.5,0,33.8,0
			c0,0,0,0,0,0c1.7,0,6.2,0,9.6-3.5c3.5-3.5,3.5-8,3.5-9.5c-0.2-21.5-0.1-42.6,0-58.7c0-1.7,0-6-3.4-9.5c-2.3-2.3-5.4-3.5-9.4-3.5
			c-7.2,0-14.5,0-21.7,0l-42.4,0c-13,0-30,0-47.3,0.2c-22.7,0.2-40.9,10.1-52.9,28.5c-12.1,18.7-24.1,37.8-35.7,56.3
			c-6,9.6-12,19.1-18,28.7c-0.9,1.5-1.5,3-1.9,4.5c-18.2-29-36.4-58-54.6-87c-12.7-20.2-31.9-30.9-55.6-31c-15-0.1-30-0.1-45.1-0.1
			l-36.5,0c-9.3,0-18.6,0-28.1,0c-1.6,0-6.3,0-9.9,3.6c-3.6,3.6-3.6,8.4-3.5,9.9c0.1,19.1,0.1,38.4,0,57.5c0,1.6,0,6.3,3.5,9.9
			c3.5,3.6,8.2,3.6,10,3.6c0,0,0,0,0,0c7.3,0,14.7,0,22,0l29.1,0c11.3,0,24.6,0,38.3-0.2h0.3c7,0,11.2,2.5,15.2,8.8
			c21.6,34.6,43.3,69.1,65,103.6l-6.9,10.5c-0.6,1-1.2,1.8-1.7,2.6l-11.2,17.8c-12.9,20.5-25.7,40.9-38.5,61.4
			c-3.1,5-7,7.2-12.9,7.2c-17.6,0-35.2,0-52.8,0c-18.8,0-37.5,0-56.4,0c-5.9,0-9.8-2.2-12.7-7.4l-54.9-95.4
			c-2.4-4.5-5.9-6.7-10.2-6.7c-2.2,0-4.4,0.6-6.7,2c-17.4,10.3-35.6,20.7-51.7,29.9c-3.2,1.8-5.2,4.3-6.1,7.4s-0.3,6.2,1.5,9.4
			c7.2,12.4,14.3,24.9,21.4,37.3c14.5,25.3,29.6,51.5,44.7,77.1c11.6,19.6,30.6,30.5,53.6,30.7c23.6,0.2,47.7,0.3,73.5,0.3
			c24.3,0,49.5-0.1,77.1-0.3c21.5-0.1,39.6-9.8,51.2-27.1c11.1-16.8,21.9-34.1,32.4-50.9c4.9-7.8,9.7-15.6,14.6-23.4
			c0.8-1.3,1.4-2.7,1.7-4.1c15.2,24.3,30.5,48.5,45.7,72.8c13.6,21.8,33.5,32.8,59,32.8h0.5c9.2,0,18.4-0.1,27.6-0.1
			c7.2,0,36,0,43.2,0c7.3,0,14.6,0,21.9,0c7.3,0,14.6,0,22,0c9.5,0,19,0,28.5-0.1c25.6-0.2,45.7-11.9,58.4-33.8
			c8.6-14.9,17.2-29.8,25.7-44.7c12.7-22.1,25.4-44.1,38.1-66.2C864.9,262.9,867.1,259.1,865.8,254.4z"/>
		
			<linearGradient id="SVGID_1_" gradientUnits="userSpaceOnUse" x1="493.7868" y1="271.5744" x2="493.7868" y2="655.1456" gradientTransform="matrix(1 0 0 -1 0 682)">
			<stop  offset="0" style="stop-color:#FFFFFF"/>
			<stop  offset="5.320000e-02" style="stop-color:#FBFBFB"/>
			<stop  offset="0.1014" style="stop-color:#F0F0F0"/>
			<stop  offset="0.1475" style="stop-color:#DEDEDE"/>
			<stop  offset="0.1556" style="stop-color:#DADADA"/>
			<stop  offset="0.1565" style="stop-color:#DADADA"/>
			<stop  offset="0.2067" style="stop-color:#DADADA"/>
			<stop  offset="0.4903" style="stop-color:#EDEDED"/>
			<stop  offset="0.6129" style="stop-color:#E9E9E9"/>
			<stop  offset="0.7241" style="stop-color:#DEDEDE"/>
			<stop  offset="0.8305" style="stop-color:#CCCCCC"/>
			<stop  offset="0.8579" style="stop-color:#C6C6C6"/>
			<stop  offset="1" style="stop-color:#FFFFFF"/>
		</linearGradient>
		<path class="st1" d="M865.8,254.4c-1.3-4.7-5.1-6.9-6.4-7.6c-19.4-11.1-35.3-20.3-50-29c-1.7-1-4.3-2.4-7.5-2.4
			c-4.6,0-8.3,2.5-11.1,7.4c-15.5,27.1-31.3,54.6-46.6,81.2l-7.4,12.9c-3.1,5.3-7,7.6-13,7.6c-17.8,0-35.7-0.1-53.5-0.1
			c-18.5,0-37.1,0-55.7,0c-5.8,0-9.6-2.1-12.6-6.9l-26.2-41.7c-10.7-17.1-21.5-34.2-32.2-51.3l6.8-10.6c0.6-0.9,1-1.6,1.5-2.3
			l14.3-22.8c14.4-22.9,28.8-45.9,43.2-68.8c3.3-5.3,7.2-7.4,13.5-7.4c13.8,0.1,27.5,0.1,41.2,0.1h16c11.2,0,22.5,0,33.8,0
			c0,0,0,0,0,0c1.7,0,6.2,0,9.6-3.5c3.5-3.5,3.5-8,3.5-9.5c-0.2-21.5-0.1-42.6,0-58.7c0-1.7,0-6-3.4-9.5c-2.3-2.3-5.4-3.5-9.4-3.5
			c-7.2,0-14.5,0-21.7,0l-42.3,0c-13,0-30,0-47.3,0.2c-22.7,0.2-40.9,10.1-52.9,28.5c-12.1,18.7-24.1,37.8-35.7,56.3
			c-6,9.6-12,19.1-18,28.7c-0.9,1.5-1.5,3-1.9,4.5c-18.2-29-36.4-58-54.6-87c-12.7-20.2-31.9-30.9-55.6-31c-15-0.1-30-0.1-45.1-0.1
			l-36.5,0c-9.3,0-18.6,0-28.1,0c-1.6,0-6.3,0-9.9,3.6c-3.6,3.6-3.6,8.4-3.5,9.9c0.1,19.1,0.1,38.4,0,57.5c0,1.6,0,6.3,3.5,9.9
			c3.5,3.6,8.2,3.6,10,3.6c0,0,0,0,0,0c7.3,0,14.7,0,22,0l29.1,0c11.3,0,24.6,0,38.3-0.2h0.3c7,0,11.2,2.5,15.2,8.8
			c21.6,34.6,43.3,69.1,65,103.6l-6.9,10.5c-0.6,1-1.2,1.8-1.7,2.6l-11.2,17.8c-12.9,20.5-25.7,40.9-38.5,61.4
			c-3.1,5-7,7.2-12.9,7.2c-17.6,0-35.2,0-52.8,0c-18.8,0-37.5,0-56.4,0c-5.9,0-9.8-2.2-12.7-7.4l-54.9-95.4
			c-2.4-4.5-5.9-6.7-10.2-6.7c-2.2,0-4.4,0.6-6.7,2c-17.4,10.3-35.6,20.7-51.7,29.9c-3.2,1.8-5.2,4.3-6.1,7.4s-0.3,6.2,1.5,9.4
			c7.2,12.4,14.3,24.9,21.4,37.3c14.5,25.3,29.6,51.5,44.7,77.1c11.6,19.6,30.6,30.5,53.6,30.7c23.6,0.2,47.7,0.3,73.5,0.3
			c24.3,0,49.5-0.1,77.1-0.3c21.5-0.1,39.6-9.8,51.2-27.1c11.1-16.8,21.9-34.1,32.4-50.9c4.9-7.8,9.7-15.6,14.6-23.4
			c0.8-1.3,1.4-2.7,1.7-4.1c15.2,24.3,30.5,48.5,45.7,72.8c13.6,21.8,33.5,32.8,59,32.8h0.5c9.2,0,18.4-0.1,27.6-0.1
			c7.2,0,36,0,43.2,0c7.3,0,14.6,0,21.9,0c7.3,0,14.6,0,22,0c9.5,0,19,0,28.5-0.1c25.6-0.2,45.7-11.9,58.4-33.8
			c8.6-14.9,17.2-29.8,25.7-44.7c12.7-22.1,25.4-44.1,38.1-66.2C864.9,262.9,867.1,259.1,865.8,254.4z"/>
		<g>
			
				<linearGradient id="SVGID_00000088119448439720748980000008777841790158446231_" gradientUnits="userSpaceOnUse" x1="346.2968" y1="463.355" x2="655.6541" y2="463.355" gradientTransform="matrix(1 0 0 -1 0 682)">
				<stop  offset="0.1621" style="stop-color:#FFFFFF;stop-opacity:0"/>
				<stop  offset="0.4885" style="stop-color:#DADADA"/>
				<stop  offset="0.7904" style="stop-color:#FFFFFF;stop-opacity:0"/>
			</linearGradient>
			<path style="fill:url(#SVGID_00000088119448439720748980000008777841790158446231_);" d="M316.5,420c-26,0-50.1-0.1-73.6-0.3
				c-27-0.2-49.3-13-62.9-36c-15.2-25.7-30.1-51.8-44.6-77c-7.3-12.7-14.4-25.1-21.6-37.6c-3.3-5.7-4.2-11.8-2.6-17.6
				c1.6-5.9,5.4-10.7,11.2-14l0.4-0.2c15.9-9.1,33.9-19.4,51.2-29.6c3.9-2.3,8.1-3.5,12.2-3.5c8.4,0,15.4,4.4,19.8,12.4l54.7,95.2
				c1,1.8,1.3,1.9,3.3,1.9c36.4,0,72.8,0,109.1,0c2.1,0,2.5-0.2,3.6-2.1c12.8-20.5,25.7-41,38.6-61.4l11.2-17.8
				c0.6-0.9,1.2-1.8,1.9-2.9l3.1-4.7c-20.5-32.7-40.9-65.2-61.3-97.7c-2.1-3.4-3-3.7-6-3.7c-13.9,0.1-27.3,0.2-38.6,0.2l-29.1,0
				c-7.3,0-14.6,0-22,0c-7.3,0-13.3-2.3-17.8-6.8c-4.5-4.5-6.8-10.5-6.7-17.7c0.1-19,0.1-38.3,0-57.3c-0.1-7.2,2.2-13.1,6.7-17.7
				c4.5-4.5,10.4-6.8,17.6-6.8c9.4,0,18.8,0,28.1,0l36.5,0c15,0,30.1,0,45.1,0.1c27.6,0.2,50,12.7,64.8,36.1
				c11.5,18.3,38.7,61.6,45,71.6c4.3-6.8,11.6-18.5,11.6-18.5c11.4-18.3,23.2-37.1,35.3-55.8c14-21.7,35.4-33.2,61.9-33.5
				c17.3-0.1,34.5-0.2,47.4-0.2l42.4,0c7.2,0,14.5,0,21.7,0c8.6,0,14,3.6,17.1,6.7c4.4,4.4,6.6,10.2,6.6,17.2
				c-0.1,15.9-0.1,36.9,0,58.5c0.1,6.9-2.2,12.7-6.6,17.2c-4.4,4.4-10.3,6.7-17.4,6.7c-11.4,0-22.6,0-33.8,0h-16
				c-13.8,0-27.5,0-41.3-0.1c-2.5,0-2.9,0.2-4.2,2.3c-13.1,21-26.3,42-39.5,62.9l-18,28.7c-0.4,0.6-3.4,5.3-4.7,7.3l54.7,87.2
				c1,1.5,1.2,1.8,3.4,1.8c36.4-0.1,72.8-0.1,109.2,0c2,0,2.4-0.1,3.6-2.2l7.9-13.7c15.2-26.4,30.8-53.6,46.1-80.4
				c4.7-8.3,12-12.9,20.5-12.9c6.5,0,11.4,2.9,13.1,3.9c14.8,8.8,30.7,18,49.9,28.9c6,3.4,9.9,8.2,11.5,14.2
				c1.6,6,0.7,12.2-2.8,18.2c-12.7,22-25.4,44.1-38.1,66.2l-25.7,44.7c-14.7,25.4-38.1,39-67.7,39.2c-9.5,0.1-19.1,0.1-28.6,0.1
				c-7.3,0-87.1-0.1-87.1-0.1c-9.2,0-18.3,0-27.5,0.1h-0.5c-29.1,0-52.7-13.1-68.2-37.9c-11.2-17.8-22.4-35.7-33.5-53.5l-2.5-4
				c-3.1,5-7.7,12.4-7.7,12.4c-10.4,16.7-21.2,34-32.4,50.9c-13.6,20.5-34.9,31.9-60.1,32C366.5,419.9,341.2,420,316.5,420z
				 M186.2,207.2c-3.6,0-7.2,1-10.6,3.1c-17.3,10.2-35.3,20.6-51.2,29.7l-0.4,0.2c-5,2.9-8.3,7-9.7,12.1c-1.3,5-0.6,10.3,2.3,15.3
				c7.2,12.4,14.3,24.9,21.6,37.6c14.5,25.2,29.4,51.3,44.6,76.9c13,22,34.4,34.3,60.2,34.5c23.5,0.2,47.5,0.3,73.5,0.3
				c24.7,0,50-0.1,77.2-0.3c24.1-0.2,44.6-11,57.6-30.6c11.2-16.9,21.9-34.1,32.3-50.8c0,0,6.1-9.8,9-14.5c0.6-0.9,2.1-0.9,2.6,0
				l3.8,6.1c11.2,17.8,22.4,35.6,33.5,53.5c14.9,23.9,37.6,36.5,65.6,36.5h0.5c9.2,0,18.3-0.1,27.5-0.1c0,0,79.7,0.1,87.1,0.1
				c9.5,0,19.1,0,28.6-0.1c28.5-0.2,51-13.2,65-37.6l25.7-44.7c12.7-22.1,25.4-44.1,38.1-66.2c3.1-5.3,3.9-10.7,2.5-15.9
				c-1.4-5.2-4.8-9.4-10-12.4c-19.2-10.9-35.1-20.1-49.9-28.9c-1.4-0.9-5.8-3.4-11.5-3.4c-7.3,0-13.7,4-17.8,11.3
				c-15.3,26.9-31,54.1-46.2,80.4l-7.9,13.7c-1.7,2.9-3,3.7-6.3,3.7c-36.4-0.1-72.8-0.1-109.2,0c-3.1,0-4.4-0.7-6-3.2l-55.2-88
				c-0.3-0.5-0.3-1.2,0-1.7c0,0,4.7-7.3,5.2-8.1l18-28.7c13.2-21,26.4-41.9,39.5-62.9c1.9-3,3.3-3.8,6.9-3.8
				c13.8,0.1,27.5,0.1,41.3,0.1h16c11.2,0,22.5,0,33.8,0c6.2,0,11.3-1.9,15.2-5.8c3.8-3.9,5.7-8.9,5.7-15c-0.2-21.7-0.1-42.7,0-58.5
				c0-6.2-1.9-11.2-5.7-15c-2.6-2.6-7.3-5.8-14.9-5.8c-7.2,0-14.5,0-21.7,0l-42.4,0c-13,0-30.1,0-47.4,0.2
				c-25.4,0.2-45.9,11.3-59.3,32c-12,18.6-23.8,37.5-35.2,55.7c0,0-9,14.4-12.9,20.6c-0.3,0.4-0.8,0.7-1.3,0.7l0,0
				c-0.5,0-1-0.3-1.3-0.7c0,0-33.2-52.9-46.3-73.7c-14.1-22.5-35.6-34.5-62.2-34.7c-15-0.1-30.1-0.1-45.1-0.1l-36.5,0
				c-9.3,0-18.6,0-28.1,0c-6.3,0-11.5,2-15.4,5.9c-3.9,3.9-5.9,9.1-5.8,15.5c0.1,19,0.1,38.3,0,57.4c-0.1,6.3,1.9,11.6,5.8,15.5
				c3.9,3.9,9.1,5.9,15.5,5.9c7.3,0,14.7,0,22,0l29.1,0c11.3,0,24.7,0,38.6-0.2c4,0,5.9,0.8,8.6,5.1c20.5,32.8,41.1,65.6,61.6,98.3
				l0.2,0.3c0.3,0.5,0.3,1.2,0,1.7l-3.6,5.5c-0.7,1-1.3,1.9-1.8,2.8L418,251.8c-12.9,20.5-25.7,40.9-38.6,61.4
				c-1.7,2.7-3.1,3.5-6.3,3.5c-36.4-0.1-72.8,0-109.1,0c-3.2,0-4.4-0.7-6-3.5l-54.7-95.2C199.5,211.1,193.4,207.2,186.2,207.2z"/>
		</g>
		<path class="st3" d="M669.4,399.6c-23.6,0-47.2-0.1-70.8,0c-22.5,0.1-39.5-9.2-51.5-28.4c-53.2-85-106.6-169.9-159.8-254.8
			c-5.6-8.9-12.9-13.3-23.5-13.2c-29.8,0.3-59.6,0.1-89.4,0.2c-3.2,0-4.1-0.8-4.1-4.1c0.1-19.2,0.1-38.4,0-57.7
			c0-3.2,0.9-4.1,4.1-4.1c36.5,0.1,73-0.1,109.5,0.1c20.6,0.1,36.7,9.1,47.7,26.6c54.1,86.1,108.1,172.2,162.2,258.3
			c4.8,7.6,11.6,11.3,20.6,11.3c36.4-0.1,72.7-0.1,109.1,0c9.6,0,16.5-4.2,21.2-12.3c18.1-31.4,36.1-62.8,54.1-94.2
			c1.7-2.9,2.7-3.4,5.7-1.6c16.6,9.9,33.4,19.5,50.2,29.1c2.5,1.4,2.5,2.5,1.2,4.7c-21.3,36.9-42.5,73.9-63.8,110.9
			c-11.2,19.3-28.1,28.9-50.3,29C717.7,399.7,693.5,399.6,669.4,399.6z"/>
		
			<linearGradient id="SVGID_00000054226614921537021460000013129992293195586234_" gradientUnits="userSpaceOnUse" x1="402.315" y1="379.4063" x2="402.315" y2="654.6793" gradientTransform="matrix(1 0 0 -1 0 682)">
			<stop  offset="0" style="stop-color:#FFFFFF"/>
			<stop  offset="1" style="stop-color:#FFFFFF;stop-opacity:0"/>
		</linearGradient>
		<path style="opacity:0.5;fill:url(#SVGID_00000054226614921537021460000013129992293195586234_);enable-background:new    ;" d="
			M524.8,230.4c-33.7-53.7-67.4-107.3-101.1-161c-9.3-14.8-22.4-22.1-39.8-22.2c-15-0.1-30-0.1-45-0.1l-36.5,0c-7.5,0-15.1,0-22.6,0
			c0.1,15.6,0.1,31.3,0,46.9c5.6,0,11.1,0,16.7,0l29.1,0c11.2,0,24.5,0,38.1-0.2h0.5c13.5,0,23.8,5.8,31.2,17.6
			c25.2,40.3,50.5,80.6,75.8,120.8c9,14.3,18,28.7,27,43C504.1,258.6,513,243.6,524.8,230.4z"/>
		<path class="st5" d="M446.3,239.2c-1.1,1.6-1.9,2.8-2.6,4c-16.6,26.4-33.2,52.8-49.7,79.2c-4.9,7.8-11.7,11.6-20.9,11.6
			c-36.4-0.1-72.7,0-109.1,0c-9.4,0-16.3-4-20.9-12.1c-4-6.9-8-13.8-11.9-20.8c-14.2-24.8-28.5-49.6-42.7-74.3
			c-1-1.7-1.4-3.3-4.2-1.6c-17.2,10.1-34.5,20.1-51.8,30c-1.9,1.1-2.2,2-1.1,3.9c22,38.1,43.7,76.4,66.1,114.4
			c10,17,25.9,25.9,45.6,26.1c50.1,0.4,100.3,0.4,150.5,0c18.1-0.1,33.3-7.8,43.4-22.9c16.1-24.4,31.3-49.4,46.9-74.1
			c0.8-1.2,0.8-2.2,0-3.5C471.4,279.3,459,259.5,446.3,239.2z M717.5,41.1c0-2.6-0.5-3.5-3.3-3.5c-37.1,0.1-74.2-0.2-111.4,0.2
			c-19,0.2-34.7,8.1-45,24.2c-18.2,28.1-35.7,56.6-53.6,84.9c-1,1.6-1,2.7,0,4.1c2.4,3.6,4.7,7.4,7,11.1c10,15.9,20,31.8,30.3,48.3
			c1-1.6,1.7-2.6,2.4-3.7c19.2-30.5,38.4-61,57.5-91.6c5-8,12-11.9,21.5-11.9c30.3,0.1,60.6,0,90.9,0.1c2.7,0,3.8-0.4,3.8-3.5
			C717.3,80.3,717.4,60.7,717.5,41.1z"/>
		
			<linearGradient id="SVGID_00000071550349362794816630000003495938346237687955_" gradientUnits="userSpaceOnUse" x1="190.2266" y1="261.4636" x2="280.3259" y2="359.7538" gradientTransform="matrix(1 0 0 -1 0 682)">
			<stop  offset="0" style="stop-color:#FFFFFF"/>
			<stop  offset="1" style="stop-color:#FFFFFF;stop-opacity:0"/>
		</linearGradient>
		<path style="opacity:0.5;fill:url(#SVGID_00000071550349362794816630000003495938346237687955_);enable-background:new    ;" d="
			M316.5,390.3c-25.8,0-49.8-0.1-73.3-0.3c-16.6-0.1-29.2-7.4-37.6-21.4c-15-25.5-30-51.6-44.5-76.9c-6.1-10.5-12.1-21.1-18.2-31.6
			c12.8-7.4,26.7-15.4,40.4-23.4l51.7,89.9c6.3,11,16.4,16.8,29.1,16.8c18.8,0,37.6,0,56.4,0c17.6,0,35.2,0,52.8,0
			c12.4,0,22.3-5.5,28.9-16c12.8-20.5,25.7-40.9,38.5-61.4l5.7-9.1c9.3,14.8,18.4,29.3,27.5,43.8c-4.2,6.7-8.4,13.4-12.6,20.2
			c-10.4,16.7-21.1,33.9-32.1,50.5c-8,12.1-20.4,18.6-35.6,18.7C365.9,390.2,340.7,390.3,316.5,390.3z"/>
		
			<linearGradient id="SVGID_00000147934709126433452100000011743007370204903834_" gradientUnits="userSpaceOnUse" x1="703.7287" y1="707.7355" x2="619.7725" y2="574.6342" gradientTransform="matrix(1 0 0 -1 0 682)">
			<stop  offset="0" style="stop-color:#FFFFFF"/>
			<stop  offset="1" style="stop-color:#FFFFFF;stop-opacity:0"/>
		</linearGradient>
		<path style="opacity:0.5;fill:url(#SVGID_00000147934709126433452100000011743007370204903834_);enable-background:new    ;" d="
			M519.2,157.1l-1.9-3.1c-1-1.7-2.1-3.4-3.2-5.1c5.4-8.6,10.8-17.1,16.1-25.7c11.5-18.5,23.5-37.5,35.5-56.1
			c8.5-13.1,21-19.8,37.2-19.9C620,47,637.1,47,650,47l42.4,0c5.2,0,10.4,0,15.7,0c0,13.7-0.1,30.1,0,46.9c-9.4,0-18.7,0-28,0h-16
			c-13.7,0-27.5,0-41.2-0.1c-12.9,0-22.8,5.5-29.5,16.3c-14.3,22.9-28.7,45.8-43.1,68.8l-8.7,13.8L519.2,157.1z"/>
	</g>
	<g>
		<g>
			<path class="st5" d="M70,661.4l-17.6-22.9l-17.6,22.9H12.5l27.6-35.2l-25.5-32.5h23.5l14.6,19.6l15.2-19.6h22.2l-25.2,31.9
				l28.6,35.9H70z"/>
			<path class="st5" d="M102.2,661.4v-67.7h33.6c10.1,0,17.7,1.9,22.7,5.8c5,3.9,7.5,9.7,7.5,17.5c0,7.9-2.6,13.8-7.7,17.6
				c-5.2,3.9-13,5.8-23.7,5.8h-13.1v21L102.2,661.4L102.2,661.4z M134.2,625.5c4.3,0,7.4-0.7,9.3-2s2.9-3.6,2.9-6.6
				c0-2.9-0.9-5-2.9-6.4c-1.9-1.3-5-2-9.2-2h-12.9v17H134.2z"/>
			<path class="st5" d="M224.5,661.4l-13.6-23h-15.6v23h-18.8v-67.7h34.6c20.2,0,30.3,7.5,30.3,22.5c0,4.5-1,8.2-2.9,11.2
				s-5,5.4-9,7.3l16.6,26.8H224.5z M210,624c4.3,0,7.4-0.6,9.4-1.9c2-1.3,2.9-3.3,2.9-6.2c0-2.8-0.9-4.8-2.8-6
				c-1.9-1.2-5-1.8-9.3-1.8h-14.8V624H210z"/>
			<path class="st5" d="M254.8,661.4v-67.7h59v15.3h-39.5v10.3h37.5v15.3h-37.5v11.6h41.7l-1.9,15.3L254.8,661.4L254.8,661.4z"/>
			<path class="st5" d="M371.5,614c-1.1-2.7-2.7-4.6-4.9-5.7s-5.2-1.8-9.1-1.8c-4.4,0-7.7,0.5-9.9,1.4c-2.2,1-3.4,2.3-3.4,4.2
				c0,1.7,0.6,3,1.8,3.8c1.2,0.8,3.5,1.5,7,2.1l14.6,2.4c8.8,1.4,15.1,3.8,19,7.1c3.9,3.3,5.8,8,5.8,13.9c0,7.2-2.9,12.5-8.6,16.2
				c-5.8,3.7-14.3,5.5-25.5,5.5c-11.3,0-19.8-2-25.8-6c-5.9-4-9.2-10-10-18h19.9c0.6,3.2,2.2,5.6,4.7,7.1c2.5,1.5,6.2,2.3,11.1,2.3
				c4.5,0,8.1-0.6,10.5-1.7s3.7-2.8,3.7-4.8c0-1.6-0.7-2.8-2-3.7c-1.4-0.9-3.7-1.6-7.1-2.1l-12-1.8c-9.3-1.4-16.1-3.8-20.4-7.3
				c-4.3-3.5-6.5-8.2-6.5-14.3c0-6.5,3-11.6,8.9-15.3c5.9-3.7,14.2-5.5,24.7-5.5c9.7,0,17.3,1.7,22.6,5c5.3,3.3,8.6,8.4,9.8,15.2
				L371.5,614z"/>
			<path class="st5" d="M447.2,614c-1.1-2.7-2.7-4.6-4.9-5.7s-5.2-1.8-9.1-1.8c-4.4,0-7.7,0.5-9.9,1.4c-2.2,1-3.4,2.3-3.4,4.2
				c0,1.7,0.6,3,1.8,3.8c1.2,0.8,3.5,1.5,7,2.1l14.6,2.4c8.8,1.4,15.1,3.8,19,7.1c3.9,3.3,5.8,8,5.8,13.9c0,7.2-2.9,12.5-8.6,16.2
				c-5.8,3.7-14.3,5.5-25.5,5.5c-11.3,0-19.8-2-25.8-6c-5.9-4-9.2-10-10-18h19.9c0.6,3.2,2.2,5.6,4.7,7.1c2.5,1.5,6.2,2.3,11.1,2.3
				c4.5,0,8.1-0.6,10.5-1.7s3.7-2.8,3.7-4.8c0-1.6-0.7-2.8-2-3.7c-1.4-0.9-3.7-1.6-7.1-2.1l-12-1.8c-9.3-1.4-16.1-3.8-20.4-7.3
				c-4.3-3.5-6.5-8.2-6.5-14.3c0-6.5,3-11.6,8.9-15.3c5.9-3.7,14.2-5.5,24.7-5.5c9.7,0,17.3,1.7,22.6,5c5.3,3.3,8.6,8.4,9.8,15.2
				L447.2,614z"/>
			<path class="st5" d="M475.5,635.4V619h39v16.4H475.5z"/>
			<path class="st5" d="M570,614c-1.1-2.7-2.7-4.6-4.9-5.7s-5.2-1.8-9.1-1.8c-4.4,0-7.7,0.5-9.9,1.4c-2.2,1-3.4,2.3-3.4,4.2
				c0,1.7,0.6,3,1.8,3.8c1.2,0.8,3.5,1.5,7,2.1l14.6,2.4c8.8,1.4,15.1,3.8,19,7.1s5.8,8,5.8,13.9c0,7.2-2.9,12.5-8.6,16.2
				c-5.8,3.7-14.3,5.5-25.5,5.5s-19.8-2-25.8-6c-5.9-4-9.2-10-10-18H541c0.6,3.2,2.2,5.6,4.7,7.1c2.5,1.5,6.2,2.3,11.1,2.3
				c4.5,0,8.1-0.6,10.5-1.7c2.5-1.1,3.7-2.8,3.7-4.8c0-1.6-0.7-2.8-2-3.7c-1.4-0.9-3.7-1.6-7.1-2.1l-12-1.8
				c-9.3-1.4-16.1-3.8-20.4-7.3c-4.3-3.5-6.5-8.2-6.5-14.3c0-6.5,3-11.6,8.9-15.3c5.9-3.7,14.2-5.5,24.7-5.5c9.7,0,17.3,1.7,22.6,5
				c5.3,3.3,8.6,8.4,9.8,15.2L570,614z"/>
			<path class="st5" d="M618.8,661.4V610h-25.2v-16.3h70.4V610h-25.2v51.4H618.8z"/>
			<path class="st5" d="M747.7,627.5c0,7.2-1.6,13.5-4.8,18.8c-3.2,5.3-7.8,9.5-13.9,12.4c-6.1,2.9-13.4,4.4-21.9,4.4
				c-8.2,0-15.2-1.4-21.2-4.2c-6-2.8-10.7-6.8-13.9-12.2c-3.3-5.3-4.9-11.8-4.9-19.2c0-7.2,1.6-13.5,4.8-18.8
				c3.2-5.3,7.8-9.5,13.9-12.4c6.1-2.9,13.4-4.4,21.9-4.4c8.2,0,15.2,1.4,21.2,4.2c6,2.8,10.7,6.8,13.9,12.2
				C746,613.7,747.7,620,747.7,627.5z M727,627.5c0-6.2-1.7-11-5.1-14.4c-3.4-3.4-8.2-5.1-14.5-5.1s-11.1,1.7-14.6,5.1
				c-3.5,3.4-5.2,8.2-5.2,14.4s1.7,11,5.1,14.4c3.4,3.4,8.2,5.1,14.5,5.1s11.1-1.7,14.6-5.1C725.3,638.5,727,633.7,727,627.5z"/>
			<path class="st5" d="M807.2,661.4l-13.6-23H778v23h-18.8v-67.7h34.6c20.2,0,30.3,7.5,30.3,22.5c0,4.5-1,8.2-2.9,11.2
				s-5,5.4-9,7.3l16.6,26.8H807.2z M792.6,624c4.3,0,7.4-0.6,9.4-1.9c2-1.3,2.9-3.3,2.9-6.2c0-2.8-0.9-4.8-2.8-6
				c-1.9-1.2-5-1.8-9.3-1.8H778V624H792.6z"/>
			<path class="st5" d="M837.4,661.4v-67.7h59v15.3h-39.5v10.3h37.5v15.3h-37.5v11.6h41.7l-1.9,15.3L837.4,661.4L837.4,661.4z"/>
			<path class="st5" d="M954.1,614c-1.1-2.7-2.7-4.6-4.9-5.7s-5.2-1.8-9.1-1.8c-4.4,0-7.7,0.5-9.9,1.4c-2.2,1-3.4,2.3-3.4,4.2
				c0,1.7,0.6,3,1.8,3.8c1.2,0.8,3.5,1.5,7,2.1l14.6,2.4c8.8,1.4,15.1,3.8,19,7.1s5.8,8,5.8,13.9c0,7.2-2.9,12.5-8.6,16.2
				c-5.8,3.7-14.3,5.5-25.5,5.5s-19.8-2-25.8-6s-9.2-10-10-18h19.9c0.6,3.2,2.2,5.6,4.7,7.1c2.5,1.5,6.2,2.3,11.1,2.3
				c4.5,0,8.1-0.6,10.5-1.7c2.5-1.1,3.7-2.8,3.7-4.8c0-1.6-0.7-2.8-2-3.7c-1.4-0.9-3.7-1.6-7.1-2.1l-12-1.8
				c-9.3-1.4-16.1-3.8-20.4-7.3c-4.3-3.5-6.5-8.2-6.5-14.3c0-6.5,3-11.6,8.9-15.3c5.9-3.7,14.2-5.5,24.7-5.5c9.7,0,17.3,1.7,22.6,5
				c5.3,3.3,8.6,8.4,9.8,15.2L954.1,614z"/>
		</g>
		<g>
			<path class="st5" d="M17.9,562.7c-0.9,0-1.3-0.4-1.3-1.3v-12.8c0-0.8,0.4-1.3,1.3-1.3h2.8c3.5,0,5.9-0.9,7.4-2.7
				c1.5-1.8,2.2-4.5,2.2-8.1v-52c0-0.8,0.4-1.3,1.3-1.3H47c0.8,0,1.3,0.4,1.3,1.3v52.6c0,8.7-2,15.1-6.1,19.3s-10.2,6.2-18.5,6.2
				L17.9,562.7L17.9,562.7z M31.4,470.5c-0.9,0-1.3-0.4-1.3-1.3v-12.4c0-0.8,0.4-1.3,1.3-1.3h15.7c0.8,0,1.3,0.4,1.3,1.3v12.4
				c0,0.9-0.4,1.3-1.3,1.3H31.4z"/>
			<path class="st5" d="M57,562.7c-0.8,0-1.3-0.4-1.3-1.3v-12.8c0-0.8,0.4-1.3,1.3-1.3h2.8c3.5,0,5.9-0.9,7.4-2.7
				c1.5-1.8,2.2-4.5,2.2-8.1v-52c0-0.8,0.4-1.3,1.3-1.3h15.5c0.8,0,1.3,0.4,1.3,1.3v52.6c0,8.7-2,15.1-6.1,19.3
				c-4.1,4.1-10.2,6.2-18.5,6.2L57,562.7L57,562.7z"/>
			<path class="st5" d="M112.4,562.7c-0.8,0-1.3-0.4-1.3-1.3v-12.8c0-0.8,0.4-1.3,1.3-1.3H127c1.8,0,3.4-0.2,4.8-0.4
				c1.4-0.3,2.6-0.8,3.5-1.6c0.9-0.8,1.6-1.8,2.2-3.2s0.8-3.2,0.8-5.4H126c-8.3,0-14.7-2-19.1-6c-4.4-4-6.7-10.8-6.7-20.4
				c0-5.4,0.8-10,2.3-13.7c1.6-3.7,3.6-6.7,6.2-9s5.5-3.9,8.9-5c3.3-1,6.8-1.5,10.3-1.5c3.7,0,7.3,0.5,10.6,1.4
				c3.4,0.9,6.3,2.5,8.9,4.6c2.5,2.1,4.5,5.1,6,8.8c1.5,3.7,2.2,8.2,2.2,13.6v11.8h8.6c3.4,0,5.1,2.5,5.1,7.6c0,3.2-0.4,5.3-1.2,6.3
				c-0.8,1-2.1,1.5-3.9,1.5h-8.6v2.4c0,7.9-2,13.9-6,17.8c-4,3.9-10.3,5.8-18.8,5.8L112.4,562.7L112.4,562.7z M128.2,496.5
				c-3.4,0-6,1.2-7.8,3.5s-2.7,5.6-2.7,9.6c0,4.6,1,7.8,3,9.3c2,1.6,4.6,2.3,7.8,2.3h9.8V509C138.2,500.7,134.9,496.5,128.2,496.5z"
				/>
			<path class="st5" d="M164.4,536.7c-1.7,0-2.9-0.5-3.6-1.5c-0.7-1-1.1-2.8-1.1-5.6c0-3,0.3-5.1,1-6.3c0.7-1.3,1.9-1.9,3.7-1.9
				h16.4c1.7,0,3,0.6,3.8,1.8c0.8,1.2,1.3,3.2,1.3,6c0,3.1-0.4,5.2-1.2,6.1c-0.8,0.9-2.1,1.4-3.9,1.4H164.4z"/>
			<path class="st5" d="M180.8,536.7c-1.7,0-2.9-0.5-3.6-1.5c-0.7-1-1.1-2.8-1.1-5.6c0-3,0.3-5.1,1-6.3c0.7-1.3,1.9-1.9,3.7-1.9
				h16.4c1.7,0,3,0.6,3.8,1.8c0.8,1.2,1.3,3.2,1.3,6c0,3.1-0.4,5.2-1.2,6.1c-0.8,0.9-2.1,1.4-3.9,1.4H180.8z"/>
			<path class="st5" d="M197.1,536.7c-1.7,0-2.9-0.5-3.6-1.5c-0.7-1-1.1-2.8-1.1-5.6c0-3,0.3-5.1,1-6.3c0.7-1.3,1.9-1.9,3.7-1.9
				h16.4c1.7,0,3,0.6,3.8,1.8c0.8,1.2,1.3,3.2,1.3,6c0,3.1-0.4,5.2-1.2,6.1c-0.8,0.9-2.1,1.4-3.9,1.4H197.1z"/>
			<path class="st5" d="M213.5,536.7c-1.7,0-2.9-0.5-3.6-1.5c-0.7-1-1.1-2.8-1.1-5.6c0-3,0.3-5.1,1-6.3c0.7-1.3,1.9-1.9,3.7-1.9
				h16.4c1.7,0,3,0.6,3.8,1.8c0.8,1.2,1.3,3.2,1.3,6c0,3.1-0.4,5.2-1.2,6.1c-0.8,0.9-2.1,1.4-3.9,1.4H213.5z"/>
			<path class="st5" d="M229.9,536.7c-1.7,0-2.9-0.5-3.6-1.5c-0.7-1-1.1-2.8-1.1-5.6c0-3,0.3-5.1,1-6.3c0.7-1.3,1.9-1.9,3.7-1.9
				h16.4c1.7,0,3,0.6,3.8,1.8c0.8,1.2,1.3,3.2,1.3,6c0,3.1-0.4,5.2-1.2,6.1c-0.8,0.9-2.1,1.4-3.9,1.4H229.9z"/>
			<path class="st5" d="M260.5,484.5c0-0.8,0.4-1.3,1.3-1.3h15.3c0.8,0,1.3,0.4,1.3,1.3v29.9c0.2,2.1,1.1,3.8,2.7,5
				c1.6,1.2,4,1.8,6.9,1.8h2.9c1.7,0,3,0.6,3.8,1.8s1.3,3.1,1.3,5.8c0,5.2-1.7,7.7-5.1,7.7c-3.2,0-6-0.4-8.4-1.1s-4.4-2.5-6-5.2
				c-1.4,2.7-3.4,4.4-6,5.2s-6.3,1.1-11,1.1h-13.1c-1.7,0-3-0.5-3.8-1.6c-0.8-1.1-1.3-3-1.3-5.9c0-2.9,0.4-4.9,1.2-6.1
				c0.8-1.2,2.1-1.8,3.9-1.8h7.9c2.7,0,4.4-0.8,5.1-2.3c0.7-1.6,1-4.2,1-8L260.5,484.5L260.5,484.5z M253.2,470.5
				c-0.9,0-1.3-0.4-1.3-1.3v-12.4c0-0.8,0.4-1.3,1.3-1.3h12.7c0.8,0,1.3,0.4,1.3,1.3v12.4c0,0.9-0.4,1.3-1.3,1.3H253.2z
				 M272.7,470.5c-0.9,0-1.3-0.4-1.3-1.3v-12.4c0-0.8,0.4-1.3,1.3-1.3h12.8c0.8,0,1.3,0.4,1.3,1.3v12.4c0,0.9-0.4,1.3-1.3,1.3H272.7
				z"/>
			<path class="st5" d="M291,536.7c-1.7,0-2.9-0.5-3.6-1.5c-0.7-1-1.1-2.8-1.1-5.6c0-3,0.3-5.1,1-6.3c0.7-1.3,1.9-1.9,3.7-1.9h16.4
				c1.7,0,3,0.6,3.8,1.8c0.8,1.2,1.3,3.2,1.3,6c0,3.1-0.4,5.2-1.2,6.1c-0.8,0.9-2.1,1.4-3.9,1.4H291z"/>
			<path class="st5" d="M350.8,536.7c-3.3,0-6-0.6-8.1-1.8c-2.1-1.2-3.7-2.8-4.8-4.9c-1.2,2.7-3,4.5-5.3,5.4s-5.7,1.3-10,1.3h-15.2
				c-1.7,0-3-0.5-3.8-1.5c-0.8-1-1.3-2.8-1.3-5.6c0-3,0.4-5.1,1.2-6.3c0.8-1.3,2.1-1.9,3.9-1.9h8.5c2.5,0,4-0.6,4.7-1.8
				c0.7-1.2,1-3.5,1-6.8v-19c0-0.8,0.4-1.3,1.3-1.3h15.5c0.8,0,1.3,0.4,1.3,1.3v20.8c0,2.7,0.8,4.5,2.5,5.5c1.7,0.9,3.5,1.4,5.6,1.4
				c1.6,0,2.9-0.2,3.9-0.5c1-0.3,1.7-0.8,2.1-1.5c0.4-0.7,0.7-1.6,0.8-2.7c0.1-1.1,0.2-2.6,0.2-4.2v-18.6c0-0.8,0.4-1.3,1.3-1.3
				h15.5c0.8,0,1.3,0.4,1.3,1.3v20.7c0,2.9,0.9,4.8,2.6,5.6c1.7,0.9,3.7,1.3,5.9,1.3c1.6,0,2.8-0.2,3.7-0.5c0.8-0.3,1.5-0.9,1.9-1.6
				c0.4-0.7,0.7-1.7,0.8-2.8c0.1-1.1,0.1-2.6,0.1-4.2v-27.6c0-0.8,0.4-1.3,1.3-1.3h15.5c0.8,0,1.3,0.4,1.3,1.3v36.1
				c0,5.5-1.1,9.5-3.4,12.1c-2.3,2.6-6.1,3.9-11.4,3.9h-7c-3.3,0-6-0.6-8-1.8c-2.1-1.2-3.7-2.8-4.8-4.9c-1.2,2.6-3,4.4-5.4,5.3
				s-5.7,1.4-9.8,1.4L350.8,536.7L350.8,536.7z"/>
			<path class="st5" d="M511.6,514.5c0,2.7,0.8,4.5,2.5,5.5c1.7,0.9,3.5,1.4,5.6,1.4c1.6,0,2.9-0.2,3.9-0.5c1-0.3,1.7-0.8,2.1-1.5
				c0.4-0.7,0.7-1.6,0.8-2.7c0.1-1.1,0.2-2.6,0.2-4.2v-18.6c0-0.8,0.4-1.3,1.3-1.3h15.5c0.8,0,1.3,0.4,1.3,1.3v20.7
				c0,2.9,0.9,4.8,2.6,5.6c1.7,0.9,3.7,1.3,5.9,1.3c1.6,0,2.8-0.2,3.7-0.5c0.8-0.3,1.5-0.9,1.9-1.6c0.4-0.7,0.7-1.7,0.8-2.8
				c0.1-1.1,0.1-2.6,0.1-4.2v-27.6c0-0.8,0.4-1.3,1.3-1.3h15.5c0.8,0,1.3,0.4,1.3,1.3v36.1c0,5.5-1.1,9.5-3.4,12.1
				c-2.3,2.6-6.1,3.9-11.4,3.9h-7c-3.3,0-6-0.6-8-1.8c-2.1-1.2-3.7-2.8-4.8-4.9c-1.2,2.6-3,4.4-5.4,5.3c-2.4,0.9-5.7,1.4-9.8,1.4
				h-4.9c-2.7,0-5-0.4-6.8-1.1s-3.4-1.9-4.6-3.3v1.7c0,5.3-0.8,9.9-2.5,13.6s-3.9,6.8-6.8,9.3c-2.9,2.4-6.3,4.2-10.2,5.3
				c-3.9,1.1-8.1,1.7-12.6,1.7c-4.4,0-8.6-0.6-12.5-1.7s-7.4-2.9-10.3-5.3c-3-2.4-5.3-5.5-7-9.4c-1.7-3.8-2.6-8.4-2.6-13.8
				c0-4.2,0.6-8.6,1.8-13.1s2.9-8.5,5.1-12c0.3-0.5,1-0.6,1.9-0.4l13.7,4.4c0.4,0.2,0.6,0.4,0.7,0.7c0,0.3,0,0.6-0.2,1
				c-1.2,2.4-2.3,5-3.3,8c-1,3-1.5,6.3-1.5,10c0,3,0.4,5.5,1.3,7.5c0.8,2,2,3.7,3.4,5c1.4,1.3,3,2.2,4.7,2.7s3.5,0.8,5.3,0.8
				c4.3,0,7.7-1.2,10.1-3.6s3.7-6.2,3.7-11.5v-39.4c0-0.8,0.4-1.3,1.3-1.3h15.5c0.8,0,1.3,0.4,1.3,1.3L511.6,514.5L511.6,514.5z"/>
			<path class="st5" d="M598.8,484.5c0-0.8,0.4-1.3,1.3-1.3h15.5c0.8,0,1.3,0.4,1.3,1.3v29.9c0.2,2.1,1.1,3.8,2.7,5
				c1.7,1.2,4,1.8,6.9,1.8h2.8c1.7,0,3,0.6,3.8,1.8c0.8,1.2,1.3,3.1,1.3,5.8c0,5.2-1.7,7.7-5.1,7.7c-2.8,0-5.2-0.3-7.2-0.8
				c-2-0.5-3.8-1.7-5.2-3.5v2c0,9.6-1.9,16.8-5.6,21.4c-3.7,4.6-10.1,6.9-19,6.9h-5.8c-0.8,0-1.3-0.4-1.3-1.3v-12.8
				c0-0.8,0.4-1.3,1.3-1.3h2.8c2.3,0,4.1-0.4,5.3-1.1c1.3-0.7,2.2-1.8,2.8-3.2c0.6-1.4,1-3.1,1.2-5.1c0.2-2,0.2-4.3,0.2-7
				L598.8,484.5L598.8,484.5z"/>
			<path class="st5" d="M629.3,536.7c-1.7,0-2.9-0.5-3.6-1.5c-0.7-1-1.1-2.8-1.1-5.6c0-3,0.3-5.1,1-6.3c0.7-1.3,1.9-1.9,3.7-1.9
				h16.4c1.7,0,3,0.6,3.8,1.8c0.8,1.2,1.3,3.2,1.3,6c0,3.1-0.4,5.2-1.2,6.1c-0.8,0.9-2.1,1.4-3.9,1.4H629.3z"/>
			<path class="st5" d="M645.6,536.7c-1.7,0-2.9-0.5-3.6-1.5c-0.7-1-1.1-2.8-1.1-5.6c0-3,0.3-5.1,1-6.3c0.7-1.3,1.9-1.9,3.7-1.9H662
				c1.7,0,3,0.6,3.8,1.8c0.8,1.2,1.3,3.2,1.3,6c0,3.1-0.4,5.2-1.2,6.1c-0.8,0.9-2.1,1.4-3.9,1.4H645.6z"/>
			<path class="st5" d="M662,536.7c-1.7,0-2.9-0.5-3.6-1.5c-0.7-1-1.1-2.8-1.1-5.6c0-3,0.3-5.1,1-6.3c0.7-1.3,1.9-1.9,3.7-1.9h16.4
				c1.7,0,3,0.6,3.8,1.8c0.8,1.2,1.3,3.2,1.3,6c0,3.1-0.4,5.2-1.2,6.1c-0.8,0.9-2.1,1.4-3.9,1.4H662z"/>
			<path class="st5" d="M678.3,536.7c-1.7,0-2.9-0.5-3.6-1.5c-0.7-1-1.1-2.8-1.1-5.6c0-3,0.3-5.1,1-6.3c0.7-1.3,1.9-1.9,3.7-1.9
				h16.4c1.7,0,3,0.6,3.8,1.8c0.8,1.2,1.3,3.2,1.3,6c0,3.1-0.4,5.2-1.2,6.1c-0.8,0.9-2.1,1.4-3.9,1.4H678.3z"/>
			<path class="st5" d="M694.7,536.7c-1.7,0-2.9-0.5-3.6-1.5c-0.7-1-1.1-2.8-1.1-5.6c0-3,0.3-5.1,1-6.3c0.7-1.3,1.9-1.9,3.7-1.9
				h16.4c1.7,0,3,0.6,3.8,1.8c0.8,1.2,1.3,3.2,1.3,6c0,3.1-0.4,5.2-1.2,6.1c-0.8,0.9-2.1,1.4-3.9,1.4H694.7z"/>
			<path class="st5" d="M738.2,530.3c-1.4,2.6-3.4,4.3-6,5.1c-2.5,0.8-6.1,1.2-10.7,1.2h-10.1c-1.7,0-3-0.3-3.8-0.8
				c-0.8-0.5-1.3-1.8-1.3-3.6c0-1.1,0.1-2.3,0.2-3.5c0.2-1.3,0.5-2.5,0.9-3.5c0.4-1.1,1-2,1.7-2.7c0.7-0.7,1.5-1.1,2.5-1.1h4.2
				c2.6,0,4.3-0.7,5-2.2c0.7-1.5,1.1-4.1,1.1-7.9v-26.6c0-0.7,0.6-1.1,1.8-1.1c1.2-0.1,2.3-0.1,3.2-0.1h11.7c0.8,0,1.3,0.4,1.3,1.3
				v29.9c0.2,2.1,1.1,3.8,2.7,5c1.7,1.2,4,1.8,6.9,1.8h2.9c1.7,0,3,0.6,3.8,1.8c0.8,1.2,1.3,3.1,1.3,5.8c0,5.2-1.7,7.7-5.1,7.7
				c-3.2,0-6-0.4-8.4-1.1C741.8,534.8,739.8,533,738.2,530.3z M723,562.5c-0.8,0-1.3-0.4-1.3-1.3v-12.4c0-0.8,0.4-1.3,1.3-1.3h15.7
				c0.8,0,1.3,0.4,1.3,1.3v12.4c0,0.8-0.4,1.3-1.3,1.3H723z"/>
			<path class="st5" d="M752,536.7c-1.7,0-2.9-0.5-3.6-1.5c-0.7-1-1.1-2.8-1.1-5.6c0-3,0.3-5.1,1-6.3c0.7-1.3,1.9-1.9,3.7-1.9h16.4
				c1.7,0,3,0.6,3.8,1.8c0.8,1.2,1.3,3.2,1.3,6c0,3.1-0.4,5.2-1.2,6.1c-0.8,0.9-2.1,1.4-3.9,1.4H752z"/>
			<path class="st5" d="M844.8,536.7c-3.3,0-6-0.6-8-1.8c-2.1-1.2-3.7-2.8-4.8-4.9c-1.2,2.6-3,4.4-5.4,5.3c-2.4,0.9-5.7,1.4-9.8,1.4
				h-4.9c-3.3,0-6-0.6-8.1-1.8c-2.1-1.2-3.7-2.8-4.8-4.9c-1.2,2.7-3,4.5-5.3,5.4s-5.7,1.3-10,1.3h-15.2c-1.7,0-3-0.5-3.8-1.5
				c-0.8-1-1.3-2.8-1.3-5.6c0-3,0.4-5.1,1.2-6.3c0.8-1.3,2.1-1.9,3.9-1.9h8.5c2.5,0,4-0.6,4.7-1.8c0.7-1.2,1-3.5,1-6.8v-19
				c0-0.8,0.4-1.3,1.3-1.3h15.5c0.8,0,1.3,0.4,1.3,1.3v20.8c0,2.7,0.8,4.5,2.5,5.5c1.7,0.9,3.5,1.4,5.6,1.4c1.6,0,2.9-0.2,3.9-0.5
				c1-0.3,1.7-0.8,2.1-1.5c0.4-0.7,0.7-1.6,0.8-2.7c0.1-1.1,0.2-2.6,0.2-4.2v-18.6c0-0.8,0.4-1.3,1.3-1.3h15.5
				c0.8,0,1.3,0.4,1.3,1.3v20.7c0,2.9,0.9,4.8,2.6,5.6c1.7,0.9,3.7,1.3,5.9,1.3c1.6,0,2.8-0.2,3.7-0.5c0.8-0.3,1.5-0.9,1.9-1.6
				c0.4-0.7,0.7-1.7,0.8-2.8c0.1-1.1,0.1-2.6,0.1-4.2v-27.6c0-0.8,0.4-1.3,1.3-1.3h15.5c0.8,0,1.3,0.4,1.3,1.3v29.9
				c0.2,2.1,1.1,3.8,2.7,5c1.7,1.2,4,1.8,6.9,1.8h2.9c1.7,0,3,0.6,3.8,1.8c0.8,1.2,1.3,3.1,1.3,5.8c0,5.2-1.7,7.7-5.1,7.7
				c-3.2,0-6-0.4-8.4-1.1s-4.4-2.5-6-5.2c-1.2,2.5-2.9,4.1-5.2,5s-4.9,1.3-7.9,1.3L844.8,536.7L844.8,536.7z"/>
			<path class="st5" d="M908.7,482.3c4.4,0.2,8.3,0.6,11.6,1.4c3.3,0.8,6.2,2.1,8.4,4c2.3,1.9,4,4.5,5.1,7.7
				c1.1,3.2,1.7,7.3,1.7,12.2v7.5c0,4.1-0.4,7.6-1.2,10.4c-0.8,2.8-2,5-3.5,6.7c-1.6,1.7-3.5,2.8-6,3.5c-2.4,0.7-5.2,1.1-8.4,1.1
				h-37.3c-1.7,0-3-0.6-3.8-1.8c-0.8-1.2-1.3-3.3-1.3-6.3c0-2.9,0.4-4.8,1.2-5.8c0.8-1,2.1-1.5,3.9-1.5h28.4c2,0,3.7-0.1,4.9-0.4
				c1.3-0.2,2.2-0.7,2.9-1.3s1.1-1.5,1.3-2.6s0.3-2.5,0.3-4.2V507c0-3.4-0.9-5.8-2.7-7.4c-1.8-1.5-4.7-2.3-8.7-2.3h-19
				c-0.8,0-1.3-0.4-1.3-1.3v-10.4c0-0.6,0.3-1.2,1-2c0.7-0.7,1.3-1.4,1.8-2l26.9-31.8c0.5-0.6,1.1-0.7,1.7-0.4l10.5,8.9
				c0.7,0.5,0.8,1.1,0.5,1.8L908.7,482.3z"/>
			<path class="st5" d="M967.4,535.4c0,0.8-0.4,1.3-1.3,1.3h-15.3c-0.8,0-1.3-0.4-1.3-1.3v-83.7c0-0.8,0.4-1.3,1.3-1.3h15.3
				c0.8,0,1.3,0.4,1.3,1.3V535.4z"/>
		</g>
	</g>
</g>
</svg>
