<?xml version="1.0" encoding="utf-8"?>
<!-- Generator: Adobe Illustrator 26.0.1, SVG Export Plug-In . SVG Version: 6.00 Build 0)  -->
<svg version="1.1" id="Layer_1" xmlns="http://www.w3.org/2000/svg" xmlns:xlink="http://www.w3.org/1999/xlink" x="0px" y="0px"
	 viewBox="0 0 929 153" style="enable-background:new 0 0 929 153;" xml:space="preserve">
<style type="text/css">
	.st0{fill:#EDEDED;}
	.st1{fill:none;stroke:url(#SVGID_1_);stroke-width:0.9445;stroke-miterlimit:10;}
	.st2{fill:url(#SVGID_00000007393567817403160440000009775134218114353329_);}
	.st3{fill:#FE9752;}
	.st4{opacity:0.5;fill:url(#SVGID_00000147941608891855838390000014045433636686145431_);}
	.st5{fill:#A8123E;}
	.st6{opacity:0.5;fill:url(#SVGID_00000063628836133193275110000012636382132854747801_);}
	.st7{opacity:0.5;fill:url(#SVGID_00000090277081363656412820000017385110401702938047_);}
</style>
<g>
	<g>
		<path class="st0" d="M274.82,86.79c-0.47-1.73-1.87-2.52-2.33-2.78c-7.08-4.03-12.88-7.39-18.24-10.56
			c-0.62-0.37-1.58-0.86-2.75-0.86c-1.67,0-3.03,0.91-4.05,2.69c-5.63,9.89-11.41,19.92-16.99,29.61l-2.71,4.71
			c-1.12,1.95-2.53,2.78-4.75,2.78c-6.5-0.02-13.01-0.02-19.51-0.02c-6.76,0-13.52,0.01-20.29,0.02c-2.12,0-3.49-0.75-4.59-2.51
			l-9.55-15.21c-3.91-6.23-7.82-12.46-11.73-18.69l2.5-3.87c0.21-0.32,0.38-0.59,0.55-0.85l5.22-8.31
			c5.25-8.36,10.5-16.71,15.74-25.08c1.2-1.93,2.62-2.71,4.92-2.71c5.01,0.02,10.02,0.02,15.04,0.02l5.81,0
			c4.09,0,8.19,0,12.32,0.01c0,0,0.01,0,0.01,0c0.62,0,2.25-0.01,3.51-1.27c1.27-1.28,1.26-2.92,1.26-3.45
			c-0.06-7.83-0.04-15.54-0.01-21.38c0-0.6,0.01-2.2-1.25-3.47c-0.84-0.84-1.98-1.27-3.41-1.27c-2.64,0.01-5.28,0.01-7.92,0.01
			l-15.44-0.01c-4.72,0-10.95,0.01-17.25,0.06c-8.25,0.07-14.92,3.66-19.27,10.39c-4.41,6.81-8.77,13.79-12.99,20.54
			c-2.18,3.49-4.36,6.97-6.56,10.45c-0.34,0.54-0.56,1.09-0.68,1.65c-6.64-10.57-13.27-21.15-19.91-31.72
			C114.88,8.36,107.87,4.45,99.22,4.4c-5.48-0.03-10.95-0.04-16.43-0.04l-13.3,0c-3.4,0-6.8,0-10.23-0.01c-0.57,0-2.3,0-3.61,1.32
			c-1.31,1.32-1.3,3.05-1.29,3.62c0.05,6.95,0.05,14,0,20.96c0,0.57-0.02,2.31,1.29,3.62c1.3,1.31,3,1.32,3.63,1.32
			c0.01,0,0.01,0,0.02,0c2.68-0.01,5.35-0.01,8.03-0.01l10.6,0.01c4.1,0,8.97-0.01,13.96-0.05l0.1,0c2.55,0,4.1,0.9,5.54,3.2
			c7.89,12.6,15.79,25.19,23.69,37.78l-2.53,3.84c-0.24,0.35-0.43,0.65-0.63,0.96l-4.07,6.48c-4.69,7.46-9.37,14.92-14.05,22.39
			c-1.15,1.83-2.55,2.61-4.69,2.61c-6.41-0.01-12.83-0.02-19.24-0.02c-6.84,0-13.69,0-20.54,0.01c-2.17,0-3.55-0.81-4.64-2.69
			L30.84,74.91c-0.88-1.63-2.14-2.45-3.73-2.45c-0.82,0-1.62,0.24-2.44,0.73c-6.36,3.76-12.99,7.56-18.84,10.92
			c-1.17,0.67-1.91,1.57-2.21,2.69c-0.3,1.11-0.11,2.27,0.56,3.42c2.61,4.53,5.22,9.06,7.82,13.6c5.3,9.23,10.77,18.78,16.28,28.11
			c4.21,7.14,11.15,11.12,19.54,11.19c8.61,0.07,17.37,0.11,26.78,0.11c8.85,0,18.05-0.03,28.12-0.1c7.83-0.05,14.45-3.56,18.65-9.9
			c4.06-6.12,8-12.44,11.81-18.55c1.77-2.84,3.54-5.68,5.33-8.51c0.31-0.49,0.51-0.99,0.63-1.5c5.55,8.85,11.11,17.69,16.65,26.55
			c4.97,7.94,12.21,11.97,21.52,11.97h0.18c3.35-0.02,6.7-0.02,10.05-0.02c2.62,0,13.12,0.01,15.74,0.01c2.66,0,5.33,0,7.99,0.01
			c2.67,0.01,5.33,0.01,8,0.01c3.47,0,6.94-0.01,10.4-0.03c9.32-0.07,16.67-4.32,21.27-12.31c3.13-5.43,6.25-10.86,9.37-16.29
			c4.63-8.04,9.25-16.09,13.89-24.13C274.49,89.9,275.29,88.52,274.82,86.79z"/>
		<linearGradient id="SVGID_1_" gradientUnits="userSpaceOnUse" x1="139.2207" y1="143.6841" x2="139.2207" y2="3.8718">
			<stop  offset="0" style="stop-color:#FFFFFF"/>
			<stop  offset="0.0532" style="stop-color:#FBFBFB"/>
			<stop  offset="0.1014" style="stop-color:#F0F0F0"/>
			<stop  offset="0.1475" style="stop-color:#DEDEDE"/>
			<stop  offset="0.1556" style="stop-color:#DADADA"/>
			<stop  offset="0.1565" style="stop-color:#DADADA"/>
			<stop  offset="0.2067" style="stop-color:#DADADA"/>
			<stop  offset="0.4903" style="stop-color:#EDEDED"/>
			<stop  offset="0.6129" style="stop-color:#E9E9E9"/>
			<stop  offset="0.7241" style="stop-color:#DEDEDE"/>
			<stop  offset="0.8305" style="stop-color:#CCCCCC"/>
			<stop  offset="0.8579" style="stop-color:#C6C6C6"/>
			<stop  offset="1" style="stop-color:#FFFFFF"/>
		</linearGradient>
		<path class="st1" d="M274.82,86.79c-0.47-1.73-1.87-2.52-2.33-2.78c-7.08-4.03-12.88-7.39-18.24-10.56
			c-0.62-0.37-1.58-0.86-2.75-0.86c-1.67,0-3.03,0.91-4.05,2.69c-5.63,9.89-11.41,19.92-16.99,29.61l-2.71,4.71
			c-1.12,1.95-2.53,2.78-4.75,2.78c-6.5-0.01-13.01-0.02-19.51-0.02c-6.76,0-13.52,0.01-20.29,0.02c-2.12,0-3.49-0.75-4.59-2.51
			l-9.55-15.21c-3.91-6.23-7.82-12.46-11.73-18.69l2.5-3.87c0.21-0.32,0.38-0.59,0.55-0.85l5.22-8.31
			c5.25-8.36,10.5-16.71,15.74-25.08c1.2-1.93,2.62-2.71,4.92-2.71c5.01,0.02,10.02,0.02,15.04,0.02l5.81,0
			c4.09,0,8.19,0,12.32,0.01c0,0,0.01,0,0.01,0c0.62,0,2.25-0.01,3.51-1.27c1.27-1.28,1.26-2.92,1.26-3.45
			c-0.06-7.83-0.04-15.54-0.01-21.38c0-0.6,0.01-2.2-1.25-3.47c-0.84-0.84-1.98-1.27-3.41-1.27c-2.64,0.01-5.28,0.01-7.92,0.01
			l-15.44-0.01c-4.72,0-10.95,0.01-17.25,0.06c-8.25,0.07-14.92,3.66-19.27,10.39c-4.41,6.81-8.77,13.79-12.99,20.54
			c-2.18,3.49-4.36,6.97-6.56,10.45c-0.34,0.54-0.56,1.09-0.68,1.65c-6.64-10.57-13.27-21.15-19.91-31.72
			C114.88,8.36,107.87,4.45,99.22,4.4c-5.48-0.03-10.95-0.04-16.43-0.04l-13.3,0c-3.4,0-6.8,0-10.23-0.01c-0.57,0-2.3,0-3.61,1.32
			c-1.31,1.32-1.3,3.05-1.29,3.62c0.05,6.95,0.05,14,0,20.96c0,0.57-0.02,2.31,1.29,3.62c1.3,1.31,3,1.32,3.63,1.32
			c0.01,0,0.01,0,0.02,0c2.68-0.01,5.35-0.01,8.03-0.01l10.6,0.01c4.1,0,8.97-0.01,13.96-0.05l0.1,0c2.55,0,4.1,0.9,5.54,3.2
			c7.89,12.6,15.79,25.19,23.69,37.78l-2.53,3.84c-0.24,0.35-0.43,0.65-0.63,0.96l-4.07,6.48c-4.69,7.46-9.37,14.92-14.05,22.39
			c-1.15,1.83-2.55,2.61-4.69,2.61c-6.41-0.01-12.83-0.02-19.24-0.02c-6.84,0-13.69,0.01-20.54,0.01c-2.17,0-3.55-0.81-4.64-2.69
			L30.84,74.91c-0.88-1.63-2.14-2.45-3.73-2.45c-0.82,0-1.62,0.24-2.44,0.73c-6.36,3.76-12.99,7.56-18.84,10.91
			c-1.17,0.67-1.91,1.57-2.21,2.69c-0.3,1.11-0.11,2.27,0.56,3.42c2.61,4.53,5.22,9.06,7.82,13.6c5.3,9.23,10.77,18.78,16.28,28.11
			c4.21,7.14,11.15,11.12,19.54,11.19c8.61,0.07,17.37,0.11,26.78,0.11c8.85,0,18.05-0.03,28.12-0.1c7.83-0.05,14.45-3.56,18.65-9.9
			c4.06-6.12,8-12.44,11.81-18.55c1.77-2.84,3.54-5.68,5.33-8.51c0.31-0.49,0.51-0.99,0.63-1.5c5.55,8.85,11.11,17.69,16.65,26.55
			c4.97,7.94,12.21,11.97,21.52,11.97h0.18c3.35-0.02,6.7-0.02,10.05-0.02c2.62,0,13.12,0.01,15.74,0.01c2.66,0,5.33,0,7.99,0.01
			c2.67,0,5.33,0.01,8,0.01c3.47,0,6.94-0.01,10.4-0.03c9.32-0.07,16.67-4.32,21.27-12.31c3.13-5.43,6.25-10.86,9.37-16.29
			c4.63-8.04,9.25-16.09,13.89-24.13C274.49,89.9,275.29,88.52,274.82,86.79z"/>
		<g>
			
				<linearGradient id="SVGID_00000155866104932850525880000001946051346832692097_" gradientUnits="userSpaceOnUse" x1="85.4669" y1="73.7778" x2="198.2235" y2="73.7778">
				<stop  offset="0.1621" style="stop-color:#FFFFFF;stop-opacity:0"/>
				<stop  offset="0.4885" style="stop-color:#DADADA"/>
				<stop  offset="0.7904" style="stop-color:#FFFFFF;stop-opacity:0"/>
			</linearGradient>
			<path style="fill:url(#SVGID_00000155866104932850525880000001946051346832692097_);" d="M74.59,147.17
				c-9.48,0-18.26-0.04-26.81-0.11c-9.83-0.09-17.97-4.75-22.92-13.14c-5.52-9.36-10.97-18.86-16.25-28.05
				c-2.66-4.63-5.26-9.16-7.87-13.69c-1.2-2.07-1.53-4.3-0.95-6.43c0.58-2.14,1.98-3.9,4.07-5.1l0.15-0.08
				c5.79-3.32,12.35-7.08,18.65-10.8c1.43-0.85,2.93-1.28,4.46-1.28c3.07,0,5.63,1.61,7.21,4.52l19.94,34.69
				c0.38,0.66,0.46,0.71,1.2,0.71c13.27-0.01,26.53-0.02,39.78,0c0.77,0,0.9-0.08,1.33-0.75c4.68-7.47,9.36-14.93,14.05-22.39
				l4.07-6.48c0.21-0.33,0.42-0.66,0.68-1.05l1.12-1.7c-7.49-11.93-14.92-23.77-22.34-35.62c-0.77-1.22-1.08-1.34-2.19-1.34
				c-5.06,0.05-9.95,0.05-14.06,0.05l-10.6-0.01c-2.67,0-5.34,0-8.01,0.01c-2.66,0-4.83-0.84-6.47-2.49
				c-1.64-1.65-2.46-3.82-2.44-6.45c0.05-6.93,0.05-13.96,0-20.9c-0.02-2.62,0.8-4.79,2.44-6.44c1.64-1.65,3.8-2.49,6.42-2.49
				C62.7,0.4,66.1,0.4,69.5,0.4l13.3-0.01c5.48,0,10.97,0.01,16.45,0.04c10.07,0.06,18.24,4.62,23.61,13.17
				c4.19,6.67,14.09,22.44,16.38,26.09c1.56-2.49,4.22-6.74,4.22-6.74c4.16-6.66,8.47-13.54,12.86-20.32
				c5.11-7.9,12.91-12.12,22.56-12.2c6.32-0.05,12.56-0.06,17.28-0.06l15.45,0.01c2.63,0,5.27,0,7.91-0.01
				c3.14,0,5.12,1.32,6.23,2.43c1.61,1.62,2.42,3.73,2.4,6.29c-0.03,5.79-0.05,13.44,0.01,21.33c0.02,2.53-0.79,4.64-2.4,6.27
				c-1.61,1.62-3.74,2.45-6.33,2.45c-4.15-0.01-8.24-0.01-12.33-0.01h-5.81c-5.02,0-10.03,0-15.05-0.02c-0.91,0-1.06,0.08-1.54,0.85
				c-4.79,7.65-9.59,15.3-14.39,22.94l-6.57,10.45c-0.14,0.22-1.25,1.94-1.7,2.65l19.94,31.77c0.35,0.56,0.43,0.65,1.24,0.65
				c13.28-0.02,26.54-0.03,39.81,0c0.72,0,0.86-0.02,1.31-0.79l2.87-4.99c5.53-9.61,11.24-19.53,16.82-29.32
				c1.73-3.03,4.39-4.69,7.49-4.69c2.38,0,4.17,1.06,4.76,1.4c5.41,3.2,11.19,6.55,18.19,10.53c2.18,1.25,3.59,2.99,4.19,5.19
				c0.6,2.2,0.25,4.44-1.03,6.65c-4.64,8.04-9.27,16.08-13.89,24.12l-9.38,16.29c-5.34,9.27-13.88,14.21-24.68,14.29
				c-3.48,0.02-6.96,0.03-10.43,0.03c-2.67,0-31.73-0.03-31.73-0.03c-3.34,0-6.68,0.01-10.03,0.02h-0.2
				c-10.61,0-19.21-4.78-24.87-13.83c-4.07-6.5-8.14-13-12.22-19.5l-0.91-1.45c-1.15,1.83-2.82,4.51-2.82,4.51
				c-3.8,6.09-7.72,12.39-11.8,18.54c-4.95,7.46-12.73,11.61-21.93,11.67C92.81,147.14,83.61,147.17,74.59,147.17z M27.11,69.62
				c-1.32,0-2.63,0.38-3.88,1.12c-6.3,3.72-12.87,7.49-18.66,10.81l-0.15,0.08c-1.82,1.04-3.04,2.57-3.54,4.41
				c-0.49,1.84-0.2,3.77,0.84,5.57c2.61,4.53,5.22,9.06,7.87,13.69c5.27,9.19,10.72,18.68,16.24,28.04
				c4.74,8.03,12.53,12.5,21.96,12.58c8.55,0.07,17.32,0.11,26.8,0.11c9.01,0,18.22-0.03,28.13-0.1c8.8-0.06,16.26-4.02,20.99-11.16
				c4.07-6.14,7.99-12.43,11.78-18.51c0,0,2.22-3.56,3.3-5.28c0.21-0.33,0.75-0.33,0.96,0l1.39,2.22c4.08,6.5,8.15,13,12.22,19.5
				c5.44,8.7,13.71,13.3,23.91,13.3h0.19c3.34-0.02,6.68-0.02,10.03-0.02c0,0,29.06,0.03,31.73,0.03c3.47,0,6.95-0.01,10.42-0.03
				c10.38-0.07,18.58-4.82,23.71-13.72l9.38-16.29c4.63-8.04,9.25-16.09,13.89-24.12c1.12-1.94,1.43-3.89,0.92-5.79
				c-0.52-1.9-1.75-3.41-3.66-4.5c-7.01-3.99-12.79-7.34-18.2-10.54c-0.53-0.31-2.12-1.25-4.19-1.25c-2.68,0-4.99,1.46-6.51,4.12
				c-5.58,9.78-11.29,19.71-16.82,29.32l-2.87,4.99c-0.61,1.07-1.11,1.36-2.29,1.36c-13.27-0.03-26.52-0.03-39.8,0
				c-1.14,0-1.61-0.25-2.2-1.18L160.88,76.3c-0.12-0.19-0.11-0.42,0-0.61c0,0,1.72-2.66,1.89-2.94l6.57-10.45
				c4.8-7.64,9.61-15.29,14.39-22.94c0.69-1.1,1.2-1.38,2.5-1.38C191.26,38,196.27,38,201.29,38h5.81c4.09,0,8.18,0,12.33,0.01
				c2.27,0,4.13-0.71,5.52-2.11c1.39-1.41,2.09-3.25,2.07-5.47c-0.06-7.89-0.04-15.55-0.01-21.34c0.01-2.24-0.69-4.09-2.07-5.48
				c-0.95-0.96-2.67-2.1-5.42-2.1c-2.64,0.01-5.27,0.01-7.91,0.01l-15.45-0.01c-4.73,0-10.96,0.01-17.28,0.06
				c-9.25,0.08-16.73,4.12-21.62,11.68c-4.38,6.77-8.69,13.65-12.85,20.31c0,0-3.29,5.26-4.7,7.5c-0.1,0.16-0.29,0.27-0.48,0.27l0,0
				c-0.19,0-0.38-0.1-0.48-0.27c0,0-12.1-19.29-16.86-26.86C116.74,6,108.9,1.63,99.24,1.57c-5.48-0.03-10.96-0.04-16.44-0.04
				L69.5,1.53c-3.4,0-6.79,0-10.23-0.01c-2.31,0-4.2,0.73-5.62,2.16C52.23,5.11,51.51,7,51.53,9.31c0.05,6.94,0.05,13.97,0,20.91
				c-0.02,2.31,0.69,4.21,2.11,5.64c1.42,1.43,3.32,2.15,5.66,2.15C61.98,38,64.65,38,67.32,38l10.6,0.01
				c4.11,0,8.99-0.01,14.06-0.05c1.46,0,2.16,0.28,3.15,1.87c7.48,11.95,14.98,23.89,22.47,35.83c0,0,0.06,0.1,0.06,0.1
				c0.12,0.19,0.11,0.43-0.01,0.61l-1.32,2.01c-0.25,0.38-0.47,0.7-0.67,1.02l-4.07,6.48c-4.69,7.46-9.38,14.92-14.05,22.39
				c-0.62,1-1.14,1.29-2.29,1.29c-13.26-0.03-26.52-0.02-39.78,0c-1.15,0-1.6-0.26-2.19-1.27l-19.95-34.7
				C31.96,71.02,29.75,69.62,27.11,69.62z"/>
		</g>
		<path class="st3" d="M203.25,139.73c-8.6,0-17.21-0.04-25.81,0.01c-8.21,0.04-14.39-3.36-18.76-10.36
			c-19.38-30.98-38.85-61.91-58.24-92.88c-2.03-3.25-4.69-4.85-8.58-4.81c-10.86,0.1-21.72,0.02-32.58,0.06
			c-1.17,0-1.49-0.31-1.48-1.48c0.05-7,0.06-14.01,0-21.01c-0.01-1.18,0.33-1.48,1.49-1.48c13.3,0.04,26.61-0.03,39.91,0.05
			c7.52,0.05,13.38,3.32,17.4,9.71c19.72,31.38,39.41,62.77,59.12,94.16c1.74,2.78,4.23,4.12,7.52,4.12
			c13.26-0.02,26.51-0.03,39.77,0c3.5,0.01,6.02-1.53,7.73-4.5c6.58-11.44,13.17-22.87,19.71-34.34c0.6-1.06,0.98-1.23,2.07-0.58
			c6.06,3.59,12.17,7.11,18.29,10.59c0.9,0.51,0.89,0.9,0.42,1.72c-7.77,13.46-15.51,26.95-23.27,40.42
			c-4.06,7.05-10.24,10.53-18.32,10.59C220.83,139.78,212.04,139.73,203.25,139.73z"/>
		
			<linearGradient id="SVGID_00000031184974543271025170000005750470170425429934_" gradientUnits="userSpaceOnUse" x1="105.884" y1="104.3746" x2="105.884" y2="4.0412">
			<stop  offset="0" style="stop-color:#FFFFFF"/>
			<stop  offset="1" style="stop-color:#FFFFFF;stop-opacity:0"/>
		</linearGradient>
		<path style="opacity:0.5;fill:url(#SVGID_00000031184974543271025170000005750470170425429934_);" d="M150.53,78.04
			c-12.28-19.56-24.55-39.12-36.84-58.68c-3.4-5.41-8.15-8.06-14.51-8.1c-5.46-0.03-10.92-0.04-16.38-0.04l-13.3,0.01
			c-2.75,0-5.5,0-8.26-0.01c0.04,5.68,0.04,11.42,0,17.1c2.03-0.01,4.06-0.01,6.08-0.01l10.6,0.01c4.09,0,8.94-0.01,13.9-0.05
			l0.16,0c4.94,0,8.66,2.1,11.36,6.42c9.19,14.69,18.41,29.36,27.62,44.04c3.28,5.22,6.55,10.45,9.82,15.67
			C142.99,88.33,146.24,82.88,150.53,78.04z"/>
		<path class="st5" d="M121.91,81.28c-0.39,0.6-0.68,1.01-0.95,1.44c-6.04,9.62-12.09,19.23-18.12,28.86
			c-1.77,2.82-4.25,4.23-7.61,4.22c-13.25-0.02-26.51-0.02-39.76,0c-3.42,0-5.93-1.47-7.63-4.42c-1.45-2.52-2.9-5.04-4.35-7.56
			c-5.19-9.03-10.38-18.06-15.57-27.09c-0.35-0.61-0.51-1.2-1.52-0.6c-6.26,3.7-12.57,7.32-18.88,10.94
			c-0.69,0.39-0.79,0.72-0.39,1.42c8.02,13.9,15.93,27.86,24.08,41.68c3.65,6.19,9.46,9.44,16.62,9.5
			c18.28,0.15,36.56,0.13,54.84,0.01c6.6-0.04,12.15-2.84,15.81-8.36c5.88-8.88,11.41-18,17.09-27c0.29-0.46,0.3-0.79,0.01-1.26
			C131.07,95.88,126.56,88.68,121.91,81.28z M220.75,9.06c0-0.94-0.18-1.29-1.22-1.29c-13.53,0.04-27.06-0.05-40.6,0.06
			c-6.93,0.06-12.63,2.97-16.42,8.82c-6.63,10.24-13.02,20.64-19.53,30.95c-0.36,0.57-0.35,0.97,0.01,1.51
			c0.88,1.33,1.71,2.69,2.56,4.05c3.64,5.8,7.28,11.6,11.05,17.6c0.37-0.57,0.62-0.95,0.87-1.34c6.99-11.13,13.99-22.25,20.95-33.38
			c1.83-2.92,4.37-4.34,7.84-4.32c11.04,0.04,22.08,0,33.12,0.04c0.98,0,1.38-0.14,1.37-1.27C220.71,23.35,220.72,16.2,220.75,9.06z
			"/>
		
			<linearGradient id="SVGID_00000010297626340600340000000007441996798377272212_" gradientUnits="userSpaceOnUse" x1="28.5814" y1="147.3632" x2="61.4214" y2="111.5377">
			<stop  offset="0" style="stop-color:#FFFFFF"/>
			<stop  offset="1" style="stop-color:#FFFFFF;stop-opacity:0"/>
		</linearGradient>
		<path style="opacity:0.5;fill:url(#SVGID_00000010297626340600340000000007441996798377272212_);" d="M74.59,136.35
			c-9.39,0-18.13-0.04-26.72-0.11c-6.06-0.05-10.66-2.68-13.69-7.81c-5.48-9.3-10.95-18.82-16.24-28.04
			c-2.21-3.85-4.41-7.69-6.63-11.53c4.67-2.68,9.74-5.6,14.72-8.52l18.84,32.76c2.31,4.02,5.97,6.14,10.59,6.14
			c6.86-0.01,13.7-0.01,20.54-0.01c6.41,0,12.82,0,19.23,0.02c4.5,0,8.13-2.02,10.52-5.84c4.67-7.46,9.36-14.92,14.04-22.38
			l2.09-3.32c3.38,5.39,6.71,10.69,10.04,15.98c-1.54,2.44-3.07,4.9-4.6,7.35c-3.79,6.07-7.7,12.35-11.7,18.39
			c-2.93,4.43-7.42,6.79-12.97,6.82C92.61,136.32,83.43,136.35,74.59,136.35z"/>
		
			<linearGradient id="SVGID_00000052064058560275893150000011401717638637858197_" gradientUnits="userSpaceOnUse" x1="215.7453" y1="-15.2976" x2="185.1443" y2="33.2161">
			<stop  offset="0" style="stop-color:#FFFFFF"/>
			<stop  offset="1" style="stop-color:#FFFFFF;stop-opacity:0"/>
		</linearGradient>
		<path style="opacity:0.5;fill:url(#SVGID_00000052064058560275893150000011401717638637858197_);" d="M148.47,51.34l-0.71-1.14
			c-0.38-0.61-0.77-1.24-1.17-1.87c1.96-3.12,3.92-6.24,5.87-9.37c4.21-6.73,8.56-13.69,12.94-20.45c3.08-4.76,7.65-7.2,13.57-7.25
			c6.28-0.05,12.49-0.06,17.19-0.06l15.44,0.01c1.9,0,3.8,0,5.7,0c-0.02,4.99-0.03,10.96,0.01,17.1c-3.41-0.01-6.81-0.01-10.21-0.01
			l-5.81,0c-5,0-10.01,0-15.01-0.02c-4.7,0-8.3,2-10.76,5.93c-5.23,8.36-10.48,16.72-15.73,25.07l-3.17,5.04L148.47,51.34z"/>
	</g>
	<g>
		<g>
			<path class="st5" d="M351.95,139.66l-11.06-14.32l-11.05,14.32h-13.91l17.3-22.05l-15.99-20.38h14.74l9.15,12.3l9.51-12.3h13.91
				l-15.81,19.97l17.89,22.47H351.95z"/>
			<path class="st5" d="M372.1,139.66V97.22h21.04c6.34,0,11.08,1.21,14.23,3.62c3.15,2.42,4.72,6.08,4.72,11
				c0,4.95-1.61,8.64-4.84,11.05c-3.23,2.42-8.17,3.63-14.83,3.63h-8.2v13.13H372.1z M392.19,117.19c2.69,0,4.65-0.43,5.85-1.28
				c1.21-0.85,1.81-2.23,1.81-4.13c0-1.82-0.59-3.15-1.78-3.98c-1.19-0.83-3.11-1.25-5.76-1.25h-8.08v10.64H392.19z"/>
			<path class="st5" d="M448.77,139.66l-8.5-14.38h-9.75v14.38h-11.77V97.22h21.69c12.64,0,18.96,4.7,18.96,14.09
				c0,2.81-0.61,5.16-1.84,7.04c-1.23,1.88-3.11,3.4-5.65,4.55l10.4,16.76H448.77z M439.67,116.24c2.69,0,4.66-0.4,5.88-1.19
				c1.23-0.79,1.84-2.08,1.84-3.86c0-1.74-0.58-3-1.75-3.77c-1.17-0.77-3.12-1.16-5.85-1.16h-9.27v9.98H439.67z"/>
			<path class="st5" d="M467.73,139.66V97.22h36.97v9.57h-24.72v6.48h23.48v9.57h-23.48v7.25h26.15l-1.19,9.57H467.73z"/>
			<path class="st5" d="M540.83,110c-0.67-1.66-1.7-2.86-3.09-3.6c-1.39-0.73-3.29-1.1-5.71-1.1c-2.73,0-4.8,0.3-6.21,0.89
				c-1.41,0.59-2.11,1.47-2.11,2.61c0,1.07,0.38,1.86,1.13,2.38s2.22,0.95,4.4,1.31l9.15,1.48c5.51,0.87,9.48,2.35,11.92,4.43
				c2.44,2.08,3.65,4.98,3.65,8.71c0,4.48-1.8,7.87-5.41,10.16c-3.61,2.3-8.93,3.45-15.99,3.45c-7.05,0-12.43-1.25-16.14-3.74
				c-3.7-2.5-5.79-6.26-6.27-11.29h12.48c0.4,2.02,1.39,3.51,2.97,4.46c1.58,0.95,3.9,1.43,6.95,1.43c2.85,0,5.05-0.36,6.6-1.07
				c1.55-0.71,2.32-1.72,2.32-3.03c0-0.99-0.43-1.76-1.28-2.32c-0.85-0.55-2.33-0.99-4.43-1.31l-7.55-1.13
				c-5.82-0.87-10.08-2.4-12.78-4.58c-2.69-2.18-4.04-5.17-4.04-8.98c0-4.08,1.86-7.27,5.59-9.57c3.72-2.3,8.87-3.45,15.45-3.45
				c6.1,0,10.83,1.05,14.17,3.15c3.35,2.1,5.4,5.27,6.15,9.51L540.83,110z"/>
			<path class="st5" d="M588.32,110c-0.67-1.66-1.7-2.86-3.09-3.6c-1.39-0.73-3.29-1.1-5.71-1.1c-2.73,0-4.8,0.3-6.21,0.89
				c-1.41,0.59-2.11,1.47-2.11,2.61c0,1.07,0.38,1.86,1.13,2.38s2.22,0.95,4.4,1.31l9.15,1.48c5.51,0.87,9.48,2.35,11.92,4.43
				c2.44,2.08,3.65,4.98,3.65,8.71c0,4.48-1.8,7.87-5.41,10.16c-3.61,2.3-8.93,3.45-15.99,3.45c-7.05,0-12.43-1.25-16.14-3.74
				c-3.7-2.5-5.79-6.26-6.27-11.29h12.48c0.4,2.02,1.39,3.51,2.97,4.46c1.58,0.95,3.9,1.43,6.95,1.43c2.85,0,5.05-0.36,6.6-1.07
				c1.55-0.71,2.32-1.72,2.32-3.03c0-0.99-0.43-1.76-1.28-2.32c-0.85-0.55-2.33-0.99-4.43-1.31l-7.55-1.13
				c-5.82-0.87-10.08-2.4-12.78-4.58c-2.69-2.18-4.04-5.17-4.04-8.98c0-4.08,1.86-7.27,5.59-9.57c3.72-2.3,8.87-3.45,15.45-3.45
				c6.1,0,10.83,1.05,14.17,3.15c3.35,2.1,5.4,5.27,6.15,9.51L588.32,110z"/>
			<path class="st5" d="M606.03,123.37v-10.28h24.43v10.28H606.03z"/>
			<path class="st5" d="M665.22,110c-0.67-1.66-1.7-2.86-3.09-3.6c-1.39-0.73-3.29-1.1-5.71-1.1c-2.73,0-4.8,0.3-6.21,0.89
				c-1.41,0.59-2.11,1.47-2.11,2.61c0,1.07,0.38,1.86,1.13,2.38s2.22,0.95,4.4,1.31l9.15,1.48c5.51,0.87,9.48,2.35,11.92,4.43
				c2.44,2.08,3.65,4.98,3.65,8.71c0,4.48-1.8,7.87-5.41,10.16c-3.61,2.3-8.93,3.45-15.99,3.45c-7.05,0-12.43-1.25-16.14-3.74
				c-3.7-2.5-5.79-6.26-6.27-11.29h12.48c0.4,2.02,1.39,3.51,2.97,4.46c1.58,0.95,3.9,1.43,6.95,1.43c2.85,0,5.05-0.36,6.6-1.07
				c1.55-0.71,2.32-1.72,2.32-3.03c0-0.99-0.43-1.76-1.28-2.32c-0.85-0.55-2.33-0.99-4.43-1.31l-7.55-1.13
				c-5.82-0.87-10.08-2.4-12.78-4.58c-2.69-2.18-4.04-5.17-4.04-8.98c0-4.08,1.86-7.27,5.59-9.57c3.72-2.3,8.87-3.45,15.45-3.45
				c6.1,0,10.83,1.05,14.17,3.15c3.35,2.1,5.4,5.27,6.15,9.51L665.22,110z"/>
			<path class="st5" d="M695.77,139.66v-32.21h-15.81V97.22h44.1v10.22h-15.81v32.21H695.77z"/>
			<path class="st5" d="M776.54,118.44c0,4.52-1,8.45-3,11.8c-2,3.35-4.91,5.93-8.74,7.76c-3.82,1.82-8.39,2.73-13.7,2.73
				c-5.11,0-9.55-0.87-13.31-2.61c-3.76-1.74-6.68-4.29-8.74-7.64c-2.06-3.35-3.09-7.36-3.09-12.04c0-4.52,1-8.45,3-11.8
				c2-3.35,4.91-5.93,8.74-7.76c3.82-1.82,8.39-2.74,13.7-2.74c5.11,0,9.55,0.87,13.31,2.62c3.76,1.74,6.68,4.29,8.74,7.64
				C775.51,109.75,776.54,113.76,776.54,118.44z M763.58,118.44c0-3.88-1.07-6.89-3.21-9.03c-2.14-2.14-5.17-3.21-9.09-3.21
				c-3.92,0-6.96,1.07-9.12,3.21c-2.16,2.14-3.24,5.15-3.24,9.03c0,3.88,1.07,6.89,3.21,9.03c2.14,2.14,5.17,3.21,9.09,3.21
				s6.96-1.07,9.12-3.21C762.5,125.33,763.58,122.32,763.58,118.44z"/>
			<path class="st5" d="M813.8,139.66l-8.5-14.38h-9.75v14.38h-11.77V97.22h21.69c12.64,0,18.96,4.7,18.96,14.09
				c0,2.81-0.61,5.16-1.84,7.04c-1.23,1.88-3.11,3.4-5.65,4.55l10.4,16.76H813.8z M804.71,116.24c2.69,0,4.66-0.4,5.88-1.19
				c1.23-0.79,1.84-2.08,1.84-3.86c0-1.74-0.58-3-1.75-3.77c-1.17-0.77-3.12-1.16-5.85-1.16h-9.27v9.98H804.71z"/>
			<path class="st5" d="M832.76,139.66V97.22h36.97v9.57h-24.72v6.48h23.48v9.57h-23.48v7.25h26.15l-1.19,9.57H832.76z"/>
			<path class="st5" d="M905.87,110c-0.67-1.66-1.7-2.86-3.09-3.6c-1.39-0.73-3.29-1.1-5.71-1.1c-2.73,0-4.8,0.3-6.21,0.89
				c-1.41,0.59-2.11,1.47-2.11,2.61c0,1.07,0.38,1.86,1.13,2.38s2.22,0.95,4.4,1.31l9.15,1.48c5.51,0.87,9.48,2.35,11.92,4.43
				c2.44,2.08,3.65,4.98,3.65,8.71c0,4.48-1.8,7.87-5.41,10.16c-3.61,2.3-8.93,3.45-15.99,3.45c-7.05,0-12.43-1.25-16.14-3.74
				c-3.7-2.5-5.79-6.26-6.27-11.29h12.48c0.4,2.02,1.39,3.51,2.97,4.46c1.58,0.95,3.9,1.43,6.95,1.43c2.85,0,5.05-0.36,6.6-1.07
				c1.55-0.71,2.32-1.72,2.32-3.03c0-0.99-0.43-1.76-1.28-2.32c-0.85-0.55-2.33-0.99-4.43-1.31l-7.55-1.13
				c-5.82-0.87-10.08-2.4-12.78-4.58c-2.69-2.18-4.04-5.17-4.04-8.98c0-4.08,1.86-7.27,5.59-9.57c3.72-2.3,8.87-3.45,15.45-3.45
				c6.1,0,10.83,1.05,14.17,3.15c3.35,2.1,5.4,5.27,6.15,9.51L905.87,110z"/>
		</g>
		<g>
			<path class="st5" d="M319.29,77.81c-0.53,0-0.79-0.27-0.79-0.79v-8.02c0-0.53,0.26-0.79,0.79-0.79h1.75
				c2.17,0,3.72-0.56,4.65-1.67c0.93-1.11,1.39-2.81,1.39-5.08V28.87c0-0.53,0.26-0.79,0.79-0.79h9.69c0.53,0,0.79,0.27,0.79,0.79
				v32.97c0,5.45-1.27,9.48-3.81,12.08c-2.54,2.59-6.41,3.89-11.6,3.89H319.29z M327.79,20.05c-0.53,0-0.79-0.26-0.79-0.79v-7.79
				c0-0.53,0.26-0.79,0.79-0.79h9.85c0.53,0,0.79,0.27,0.79,0.79v7.79c0,0.53-0.27,0.79-0.79,0.79H327.79z"/>
			<path class="st5" d="M343.84,77.81c-0.53,0-0.79-0.27-0.79-0.79v-8.02c0-0.53,0.26-0.79,0.79-0.79h1.75
				c2.17,0,3.72-0.56,4.65-1.67c0.93-1.11,1.39-2.81,1.39-5.08V28.87c0-0.53,0.26-0.79,0.79-0.79h9.69c0.53,0,0.79,0.27,0.79,0.79
				v32.97c0,5.45-1.27,9.48-3.81,12.08c-2.54,2.59-6.41,3.89-11.6,3.89H343.84z"/>
			<path class="st5" d="M378.55,77.81c-0.53,0-0.79-0.27-0.79-0.79v-8.02c0-0.53,0.26-0.79,0.79-0.79h9.14
				c1.11,0,2.11-0.09,2.98-0.28c0.87-0.19,1.6-0.52,2.18-0.99c0.58-0.48,1.03-1.15,1.35-2.03c0.32-0.87,0.48-2,0.48-3.38h-7.63
				c-5.19,0-9.18-1.24-11.96-3.73c-2.78-2.49-4.17-6.75-4.17-12.79c0-3.39,0.49-6.25,1.47-8.58c0.98-2.33,2.28-4.21,3.89-5.64
				c1.61-1.43,3.47-2.46,5.56-3.1c2.09-0.64,4.25-0.95,6.47-0.95c2.33,0,4.55,0.29,6.67,0.87c2.12,0.58,3.97,1.55,5.56,2.9
				c1.59,1.35,2.85,3.18,3.77,5.48c0.93,2.3,1.39,5.15,1.39,8.54v7.39h5.4c2.12,0,3.18,1.59,3.18,4.77c0,2.01-0.25,3.32-0.76,3.93
				c-0.5,0.61-1.31,0.91-2.42,0.91h-5.4v1.51c0,4.98-1.26,8.69-3.77,11.12c-2.52,2.44-6.45,3.65-11.8,3.65H378.55z M388.4,36.34
				c-2.12,0-3.75,0.74-4.89,2.22c-1.14,1.48-1.71,3.5-1.71,6.04c0,2.91,0.62,4.86,1.87,5.84c1.24,0.98,2.87,1.47,4.89,1.47h6.12
				V44.2C394.68,38.96,392.59,36.34,388.4,36.34z"/>
			<path class="st5" d="M411.12,61.52c-1.06,0-1.81-0.3-2.26-0.91c-0.45-0.61-0.68-1.79-0.68-3.54c0-1.85,0.21-3.18,0.64-3.97
				c0.42-0.79,1.19-1.19,2.3-1.19h10.25c1.06,0,1.85,0.38,2.38,1.15c0.53,0.77,0.79,2.03,0.79,3.77c0,1.96-0.25,3.23-0.75,3.81
				c-0.5,0.58-1.31,0.87-2.42,0.87H411.12z"/>
			<path class="st5" d="M421.37,61.52c-1.06,0-1.81-0.3-2.26-0.91c-0.45-0.61-0.68-1.79-0.68-3.54c0-1.85,0.21-3.18,0.64-3.97
				c0.42-0.79,1.19-1.19,2.3-1.19h10.25c1.06,0,1.85,0.38,2.38,1.15s0.79,2.03,0.79,3.77c0,1.96-0.25,3.23-0.75,3.81
				c-0.5,0.58-1.31,0.87-2.42,0.87H421.37z"/>
			<path class="st5" d="M431.62,61.52c-1.06,0-1.81-0.3-2.26-0.91c-0.45-0.61-0.68-1.79-0.68-3.54c0-1.85,0.21-3.18,0.64-3.97
				c0.42-0.79,1.19-1.19,2.3-1.19h10.25c1.06,0,1.85,0.38,2.38,1.15c0.53,0.77,0.79,2.03,0.79,3.77c0,1.96-0.25,3.23-0.75,3.81
				c-0.5,0.58-1.31,0.87-2.42,0.87H431.62z"/>
			<path class="st5" d="M441.87,61.52c-1.06,0-1.81-0.3-2.26-0.91c-0.45-0.61-0.68-1.79-0.68-3.54c0-1.85,0.21-3.18,0.64-3.97
				c0.42-0.79,1.19-1.19,2.3-1.19h10.25c1.06,0,1.85,0.38,2.38,1.15s0.79,2.03,0.79,3.77c0,1.96-0.25,3.23-0.75,3.81
				c-0.5,0.58-1.31,0.87-2.42,0.87H441.87z"/>
			<path class="st5" d="M452.12,61.52c-1.06,0-1.81-0.3-2.26-0.91c-0.45-0.61-0.68-1.79-0.68-3.54c0-1.85,0.21-3.18,0.64-3.97
				c0.42-0.79,1.19-1.19,2.3-1.19h10.25c1.06,0,1.85,0.38,2.38,1.15c0.53,0.77,0.79,2.03,0.79,3.77c0,1.96-0.25,3.23-0.75,3.81
				c-0.5,0.58-1.31,0.87-2.42,0.87H452.12z"/>
			<path class="st5" d="M471.34,28.87c0-0.53,0.26-0.79,0.79-0.79h9.61c0.53,0,0.79,0.27,0.79,0.79v18.75
				c0.11,1.32,0.68,2.37,1.71,3.14c1.03,0.77,2.48,1.15,4.33,1.15h1.83c1.06,0,1.85,0.37,2.38,1.11c0.53,0.74,0.79,1.96,0.79,3.65
				c0,3.23-1.06,4.85-3.18,4.85c-2.01,0-3.76-0.24-5.24-0.71c-1.48-0.48-2.73-1.56-3.73-3.26c-0.85,1.7-2.11,2.78-3.77,3.26
				c-1.67,0.48-3.96,0.71-6.87,0.71h-8.18c-1.06,0-1.85-0.33-2.38-0.99c-0.53-0.66-0.79-1.89-0.79-3.69c0-1.8,0.25-3.07,0.76-3.81
				c0.5-0.74,1.31-1.11,2.42-1.11h4.92c1.69,0,2.75-0.49,3.18-1.47c0.42-0.98,0.64-2.66,0.64-5.04V28.87z M466.73,20.05
				c-0.53,0-0.79-0.26-0.79-0.79v-7.79c0-0.53,0.26-0.79,0.79-0.79h7.94c0.53,0,0.79,0.27,0.79,0.79v7.79
				c0,0.53-0.27,0.79-0.79,0.79H466.73z M478.97,20.05c-0.53,0-0.79-0.26-0.79-0.79v-7.79c0-0.53,0.26-0.79,0.79-0.79h8.02
				c0.53,0,0.79,0.27,0.79,0.79v7.79c0,0.53-0.27,0.79-0.79,0.79H478.97z"/>
			<path class="st5" d="M490.41,61.52c-1.06,0-1.81-0.3-2.26-0.91c-0.45-0.61-0.68-1.79-0.68-3.54c0-1.85,0.21-3.18,0.64-3.97
				c0.42-0.79,1.19-1.19,2.3-1.19h10.25c1.06,0,1.85,0.38,2.38,1.15s0.79,2.03,0.79,3.77c0,1.96-0.25,3.23-0.75,3.81
				c-0.5,0.58-1.31,0.87-2.42,0.87H490.41z"/>
			<path class="st5" d="M527.9,61.52c-2.07,0-3.76-0.38-5.08-1.15c-1.32-0.77-2.33-1.79-3.02-3.06c-0.74,1.7-1.85,2.82-3.34,3.38
				c-1.48,0.56-3.57,0.83-6.28,0.83h-9.53c-1.06,0-1.85-0.3-2.38-0.91c-0.53-0.61-0.79-1.79-0.79-3.54c0-1.85,0.25-3.18,0.76-3.97
				c0.5-0.79,1.31-1.19,2.42-1.19h5.32c1.54,0,2.51-0.38,2.94-1.15c0.42-0.77,0.64-2.19,0.64-4.25V34.59c0-0.53,0.26-0.79,0.79-0.79
				h9.69c0.53,0,0.79,0.27,0.79,0.79v13.03c0,1.7,0.53,2.83,1.59,3.42c1.06,0.58,2.22,0.87,3.5,0.87c1.01,0,1.81-0.11,2.42-0.32
				c0.61-0.21,1.05-0.53,1.31-0.95c0.26-0.42,0.44-0.99,0.52-1.71c0.08-0.72,0.12-1.6,0.12-2.66V34.59c0-0.53,0.26-0.79,0.79-0.79
				h9.69c0.53,0,0.79,0.27,0.79,0.79v12.95c0,1.8,0.54,2.98,1.63,3.54c1.08,0.56,2.32,0.83,3.69,0.83c1.01,0,1.77-0.11,2.3-0.32
				c0.53-0.21,0.93-0.54,1.19-0.99c0.26-0.45,0.42-1.03,0.48-1.75c0.05-0.71,0.08-1.6,0.08-2.66V28.87c0-0.53,0.26-0.79,0.79-0.79
				h9.69c0.53,0,0.79,0.27,0.79,0.79v22.64c0,3.44-0.71,5.97-2.14,7.59c-1.43,1.62-3.81,2.42-7.15,2.42h-4.37
				c-2.07,0-3.75-0.38-5.04-1.15c-1.3-0.77-2.29-1.79-2.98-3.06c-0.74,1.64-1.87,2.75-3.38,3.34c-1.51,0.58-3.56,0.87-6.16,0.87
				H527.9z"/>
			<path class="st5" d="M628.64,47.62c0,1.7,0.53,2.83,1.59,3.42c1.06,0.58,2.22,0.87,3.5,0.87c1.01,0,1.81-0.11,2.42-0.32
				c0.61-0.21,1.05-0.53,1.31-0.95c0.26-0.42,0.44-0.99,0.52-1.71c0.08-0.72,0.12-1.6,0.12-2.66V34.59c0-0.53,0.26-0.79,0.79-0.79
				h9.69c0.53,0,0.79,0.27,0.79,0.79v12.95c0,1.8,0.54,2.98,1.63,3.54c1.08,0.56,2.32,0.83,3.69,0.83c1.01,0,1.77-0.11,2.3-0.32
				c0.53-0.21,0.93-0.54,1.19-0.99c0.26-0.45,0.42-1.03,0.48-1.75c0.05-0.71,0.08-1.6,0.08-2.66V28.87c0-0.53,0.26-0.79,0.79-0.79
				h9.69c0.53,0,0.79,0.27,0.79,0.79v22.64c0,3.44-0.71,5.97-2.14,7.59c-1.43,1.62-3.81,2.42-7.15,2.42h-4.37
				c-2.07,0-3.75-0.38-5.04-1.15c-1.3-0.77-2.29-1.79-2.98-3.06c-0.74,1.64-1.87,2.75-3.38,3.34c-1.51,0.58-3.56,0.87-6.16,0.87
				h-3.1c-1.7,0-3.13-0.24-4.29-0.71c-1.17-0.48-2.12-1.16-2.86-2.07v1.03c0,3.34-0.52,6.18-1.55,8.54
				c-1.03,2.36-2.45,4.29-4.25,5.8c-1.8,1.51-3.93,2.62-6.39,3.34c-2.46,0.71-5.1,1.07-7.9,1.07c-2.75,0-5.36-0.36-7.82-1.07
				c-2.46-0.72-4.62-1.83-6.47-3.34c-1.85-1.51-3.32-3.47-4.41-5.88c-1.09-2.41-1.63-5.28-1.63-8.62c0-2.65,0.38-5.38,1.15-8.18
				c0.77-2.81,1.84-5.32,3.22-7.55c0.21-0.32,0.61-0.4,1.19-0.24l8.58,2.78c0.26,0.11,0.41,0.25,0.44,0.44
				c0.03,0.19-0.01,0.38-0.12,0.6c-0.74,1.48-1.43,3.15-2.07,5.01c-0.64,1.85-0.95,3.95-0.95,6.28c0,1.85,0.26,3.42,0.79,4.69
				c0.53,1.27,1.23,2.3,2.11,3.1c0.87,0.79,1.85,1.36,2.94,1.71c1.08,0.34,2.18,0.52,3.3,0.52c2.7,0,4.82-0.75,6.36-2.26
				c1.54-1.51,2.3-3.91,2.3-7.19V34.59c0-0.53,0.26-0.79,0.79-0.79h9.69c0.53,0,0.79,0.27,0.79,0.79V47.62z"/>
			<path class="st5" d="M683.29,28.87c0-0.53,0.26-0.79,0.79-0.79h9.69c0.53,0,0.79,0.27,0.79,0.79v18.75
				c0.11,1.32,0.68,2.37,1.71,3.14c1.03,0.77,2.48,1.15,4.33,1.15h1.75c1.06,0,1.85,0.37,2.38,1.11c0.53,0.74,0.79,1.96,0.79,3.65
				c0,3.23-1.06,4.85-3.18,4.85c-1.75,0-3.26-0.17-4.53-0.52c-1.27-0.34-2.36-1.07-3.26-2.18v1.27c0,6.04-1.17,10.5-3.49,13.39
				c-2.33,2.89-6.3,4.33-11.92,4.33h-3.65c-0.53,0-0.79-0.27-0.79-0.79v-8.02c0-0.53,0.26-0.79,0.79-0.79h1.75
				c1.43,0,2.54-0.23,3.34-0.68c0.79-0.45,1.39-1.11,1.79-1.99c0.4-0.87,0.65-1.95,0.76-3.22c0.11-1.27,0.16-2.73,0.16-4.37V28.87z"
				/>
			<path class="st5" d="M702.36,61.52c-1.06,0-1.81-0.3-2.26-0.91c-0.45-0.61-0.68-1.79-0.68-3.54c0-1.85,0.21-3.18,0.64-3.97
				c0.42-0.79,1.19-1.19,2.3-1.19h10.25c1.06,0,1.85,0.38,2.38,1.15c0.53,0.77,0.79,2.03,0.79,3.77c0,1.96-0.25,3.23-0.75,3.81
				c-0.5,0.58-1.31,0.87-2.42,0.87H702.36z"/>
			<path class="st5" d="M712.61,61.52c-1.06,0-1.81-0.3-2.26-0.91c-0.45-0.61-0.68-1.79-0.68-3.54c0-1.85,0.21-3.18,0.64-3.97
				c0.42-0.79,1.19-1.19,2.3-1.19h10.25c1.06,0,1.85,0.38,2.38,1.15s0.79,2.03,0.79,3.77c0,1.96-0.25,3.23-0.75,3.81
				c-0.5,0.58-1.31,0.87-2.42,0.87H712.61z"/>
			<path class="st5" d="M722.86,61.52c-1.06,0-1.81-0.3-2.26-0.91c-0.45-0.61-0.67-1.79-0.67-3.54c0-1.85,0.21-3.18,0.64-3.97
				c0.42-0.79,1.19-1.19,2.3-1.19h10.25c1.06,0,1.85,0.38,2.38,1.15c0.53,0.77,0.79,2.03,0.79,3.77c0,1.96-0.25,3.23-0.75,3.81
				c-0.5,0.58-1.31,0.87-2.42,0.87H722.86z"/>
			<path class="st5" d="M733.1,61.52c-1.06,0-1.81-0.3-2.26-0.91c-0.45-0.61-0.68-1.79-0.68-3.54c0-1.85,0.21-3.18,0.64-3.97
				c0.42-0.79,1.19-1.19,2.3-1.19h10.25c1.06,0,1.85,0.38,2.38,1.15c0.53,0.77,0.79,2.03,0.79,3.77c0,1.96-0.25,3.23-0.75,3.81
				c-0.5,0.58-1.31,0.87-2.42,0.87H733.1z"/>
			<path class="st5" d="M743.35,61.52c-1.06,0-1.81-0.3-2.26-0.91c-0.45-0.61-0.68-1.79-0.68-3.54c0-1.85,0.21-3.18,0.64-3.97
				c0.42-0.79,1.19-1.19,2.3-1.19h10.25c1.06,0,1.85,0.38,2.38,1.15c0.53,0.77,0.79,2.03,0.79,3.77c0,1.96-0.25,3.23-0.75,3.81
				c-0.5,0.58-1.31,0.87-2.42,0.87H743.35z"/>
			<path class="st5" d="M770.6,57.55c-0.9,1.64-2.14,2.71-3.73,3.22c-1.59,0.5-3.81,0.76-6.67,0.76h-6.36
				c-1.06,0-1.85-0.17-2.38-0.52c-0.53-0.34-0.79-1.1-0.79-2.26c0-0.69,0.05-1.43,0.16-2.22c0.11-0.79,0.29-1.54,0.56-2.22
				c0.27-0.69,0.61-1.26,1.03-1.71c0.42-0.45,0.95-0.68,1.59-0.68h2.62c1.64,0,2.69-0.46,3.14-1.39c0.45-0.93,0.68-2.58,0.68-4.97
				V28.87c0-0.42,0.38-0.66,1.15-0.71c0.77-0.05,1.44-0.08,2.03-0.08h7.31c0.53,0,0.79,0.27,0.79,0.79v18.75
				c0.11,1.32,0.68,2.37,1.71,3.14c1.03,0.77,2.48,1.15,4.33,1.15h1.83c1.06,0,1.85,0.37,2.38,1.11c0.53,0.74,0.79,1.96,0.79,3.65
				c0,3.23-1.06,4.85-3.18,4.85c-2.01,0-3.76-0.24-5.24-0.71C772.85,60.33,771.61,59.25,770.6,57.55z M761.07,77.73
				c-0.53,0-0.79-0.27-0.79-0.79v-7.79c0-0.53,0.26-0.79,0.79-0.79h9.85c0.53,0,0.79,0.26,0.79,0.79v7.79
				c0,0.53-0.27,0.79-0.79,0.79H761.07z"/>
			<path class="st5" d="M779.26,61.52c-1.06,0-1.81-0.3-2.26-0.91c-0.45-0.61-0.68-1.79-0.68-3.54c0-1.85,0.21-3.18,0.64-3.97
				c0.42-0.79,1.19-1.19,2.3-1.19h10.25c1.06,0,1.85,0.38,2.38,1.15c0.53,0.77,0.79,2.03,0.79,3.77c0,1.96-0.25,3.23-0.75,3.81
				c-0.5,0.58-1.31,0.87-2.42,0.87H779.26z"/>
			<path class="st5" d="M837.41,61.52c-2.07,0-3.75-0.38-5.04-1.15c-1.3-0.77-2.29-1.79-2.98-3.06c-0.74,1.64-1.87,2.75-3.38,3.34
				c-1.51,0.58-3.56,0.87-6.16,0.87h-3.1c-2.07,0-3.76-0.38-5.08-1.15c-1.32-0.77-2.33-1.79-3.02-3.06
				c-0.74,1.7-1.85,2.82-3.34,3.38c-1.48,0.56-3.57,0.83-6.28,0.83h-9.53c-1.06,0-1.85-0.3-2.38-0.91
				c-0.53-0.61-0.79-1.79-0.79-3.54c0-1.85,0.25-3.18,0.76-3.97c0.5-0.79,1.31-1.19,2.42-1.19h5.32c1.54,0,2.51-0.38,2.94-1.15
				c0.42-0.77,0.64-2.19,0.64-4.25V34.59c0-0.53,0.26-0.79,0.79-0.79h9.69c0.53,0,0.79,0.27,0.79,0.79v13.03
				c0,1.7,0.53,2.83,1.59,3.42c1.06,0.58,2.22,0.87,3.5,0.87c1.01,0,1.81-0.11,2.42-0.32c0.61-0.21,1.05-0.53,1.31-0.95
				c0.26-0.42,0.44-0.99,0.52-1.71c0.08-0.72,0.12-1.6,0.12-2.66V34.59c0-0.53,0.26-0.79,0.79-0.79h9.69c0.53,0,0.79,0.27,0.79,0.79
				v12.95c0,1.8,0.54,2.98,1.63,3.54c1.08,0.56,2.32,0.83,3.69,0.83c1.01,0,1.77-0.11,2.3-0.32c0.53-0.21,0.93-0.54,1.19-0.99
				c0.26-0.45,0.42-1.03,0.48-1.75c0.05-0.71,0.08-1.6,0.08-2.66V28.87c0-0.53,0.26-0.79,0.79-0.79h9.69c0.53,0,0.79,0.27,0.79,0.79
				v18.75c0.11,1.32,0.68,2.37,1.71,3.14c1.03,0.77,2.48,1.15,4.33,1.15h1.83c1.06,0,1.85,0.37,2.38,1.11
				c0.53,0.74,0.79,1.96,0.79,3.65c0,3.23-1.06,4.85-3.18,4.85c-2.01,0-3.76-0.24-5.24-0.71c-1.48-0.48-2.73-1.56-3.73-3.26
				c-0.74,1.54-1.83,2.58-3.26,3.14c-1.43,0.56-3.07,0.83-4.92,0.83H837.41z"/>
			<path class="st5" d="M877.45,27.44c2.75,0.11,5.18,0.4,7.27,0.87c2.09,0.48,3.85,1.31,5.28,2.5c1.43,1.19,2.5,2.79,3.22,4.81
				c0.72,2.01,1.07,4.56,1.07,7.63v4.69c0,2.6-0.25,4.77-0.76,6.51c-0.5,1.75-1.24,3.14-2.22,4.17c-0.98,1.03-2.22,1.78-3.73,2.22
				c-1.51,0.45-3.27,0.68-5.28,0.68h-23.36c-1.06,0-1.85-0.37-2.38-1.11c-0.53-0.74-0.79-2.07-0.79-3.97c0-1.8,0.25-3.01,0.76-3.61
				c0.5-0.61,1.31-0.91,2.42-0.91h17.8c1.27,0,2.3-0.08,3.1-0.24c0.79-0.16,1.4-0.44,1.83-0.83s0.7-0.94,0.83-1.63
				c0.13-0.69,0.2-1.56,0.2-2.62v-3.65c0-2.12-0.57-3.65-1.71-4.61c-1.14-0.95-2.95-1.43-5.44-1.43h-11.92
				c-0.53,0-0.79-0.26-0.79-0.79v-6.51c0-0.37,0.21-0.78,0.64-1.23c0.42-0.45,0.79-0.86,1.11-1.23l16.84-19.94
				c0.32-0.37,0.66-0.45,1.03-0.24l6.59,5.56c0.42,0.32,0.53,0.69,0.32,1.11L877.45,27.44z"/>
			<path class="st5" d="M914.23,60.73c0,0.53-0.27,0.79-0.79,0.79h-9.61c-0.53,0-0.79-0.26-0.79-0.79V8.3
				c0-0.53,0.26-0.79,0.79-0.79h9.61c0.53,0,0.79,0.27,0.79,0.79V60.73z"/>
		</g>
	</g>
</g>
</svg>
